<svg width="15" height="14" viewBox="0 0 15 14" fill="none" xmlns="http://www.w3.org/2000/svg">
<path d="M7.49984 12.834C6.34612 12.834 5.2183 12.4919 4.25901 11.8509C3.29973 11.2099 2.55205 10.2989 2.11054 9.23297C1.66903 8.16707 1.55351 6.99418 1.77859 5.86262C2.00367 4.73107 2.55924 3.69167 3.37505 2.87586C4.19086 2.06006 5.23026 1.50448 6.36181 1.2794C7.49337 1.05432 8.66626 1.16984 9.73216 1.61135C10.7981 2.05287 11.7091 2.80054 12.3501 3.75982C12.9911 4.71911 13.3332 5.84693 13.3332 7.00065C13.3332 7.7667 13.1823 8.52524 12.8891 9.23297C12.596 9.9407 12.1663 10.5838 11.6246 11.1254C11.083 11.6671 10.4399 12.0968 9.73216 12.3899C9.02443 12.6831 8.26588 12.834 7.49984 12.834ZM7.49984 2.33398C6.26216 2.33398 5.07518 2.82565 4.20001 3.70082C3.32484 4.57599 2.83317 5.76297 2.83317 7.00065C2.83188 8.03703 3.1791 9.04375 3.81901 9.85898L10.3582 3.31982C9.54294 2.67991 8.53622 2.3327 7.49984 2.33398ZM11.1807 4.14232L4.64151 10.6815C5.45674 11.3214 6.46346 11.6686 7.49984 11.6673C8.73752 11.6673 9.9245 11.1757 10.7997 10.3005C11.6748 9.42531 12.1665 8.23833 12.1665 7.00065C12.1678 5.96427 11.8206 4.95755 11.1807 4.14232Z" fill="white"/>
</svg>
