<svg width="38" height="39" viewBox="0 0 38 39" fill="none" xmlns="http://www.w3.org/2000/svg">
<path d="M30.0832 10.7911H28.0565L27.5498 9.20772C27.2214 8.27867 26.6121 7.47476 25.8064 6.90739C25.0008 6.34001 24.0386 6.03725 23.0532 6.04105H14.9465C13.9515 6.04291 12.9821 6.35722 12.1753 6.9396C11.3685 7.52199 10.7649 8.34304 10.4498 9.28688L9.94317 10.8702H7.9165C6.65673 10.8702 5.44854 11.3707 4.55775 12.2615C3.66695 13.1523 3.1665 14.3604 3.1665 15.6202V28.2869C3.1665 29.5467 3.66695 30.7548 4.55775 31.6456C5.44854 32.5364 6.65673 33.0369 7.9165 33.0369H30.0832C31.3429 33.0369 32.5511 32.5364 33.4419 31.6456C34.3327 30.7548 34.8332 29.5467 34.8332 28.2869V15.6202C34.8437 14.9898 34.7286 14.3636 34.4946 13.7782C34.2606 13.1927 33.9124 12.6597 33.4702 12.2102C33.0281 11.7607 32.5009 11.4037 31.9194 11.16C31.3379 10.9164 30.7137 10.791 30.0832 10.7911ZM31.6665 28.2077C31.6665 28.6276 31.4997 29.0304 31.2028 29.3273C30.9058 29.6242 30.5031 29.791 30.0832 29.791H7.9165C7.49658 29.791 7.09385 29.6242 6.79692 29.3273C6.49999 29.0304 6.33317 28.6276 6.33317 28.2077V15.5411C6.33317 15.1211 6.49999 14.7184 6.79692 14.4215C7.09385 14.1245 7.49658 13.9577 7.9165 13.9577H11.0832C11.4284 13.9757 11.7701 13.8803 12.056 13.6858C12.3419 13.4914 12.5563 13.2088 12.6665 12.8811L13.5215 10.2844C13.6277 9.9699 13.8301 9.69675 14.1 9.50355C14.3699 9.31035 14.6937 9.20686 15.0257 9.20772H23.1323C23.4643 9.20686 23.7881 9.31035 24.058 9.50355C24.3279 9.69675 24.5303 9.9699 24.6365 10.2844L25.4915 12.8811C25.5931 13.1831 25.7835 13.4474 26.0377 13.6395C26.2919 13.8316 26.5982 13.9425 26.9165 13.9577H30.0832C30.5031 13.9577 30.9058 14.1245 31.2028 14.4215C31.4997 14.7184 31.6665 15.1211 31.6665 15.5411V28.2077ZM18.9998 13.9577C17.7472 13.9577 16.5227 14.3292 15.4812 15.0251C14.4397 15.721 13.628 16.7101 13.1486 17.8674C12.6692 19.0247 12.5438 20.2981 12.7882 21.5266C13.0326 22.7552 13.6358 23.8837 14.5215 24.7694C15.4072 25.6551 16.5357 26.2583 17.7643 26.5027C18.9928 26.7471 20.2662 26.6216 21.4235 26.1423C22.5808 25.6629 23.5699 24.8512 24.2658 23.8097C24.9617 22.7681 25.3332 21.5437 25.3332 20.291C25.3332 18.6113 24.6659 17.0004 23.4782 15.8127C22.2905 14.625 20.6795 13.9577 18.9998 13.9577ZM18.9998 23.4577C18.3735 23.4577 17.7613 23.272 17.2405 22.924C16.7198 22.5761 16.3139 22.0815 16.0742 21.5029C15.8345 20.9242 15.7718 20.2875 15.894 19.6733C16.0162 19.059 16.3178 18.4947 16.7607 18.0519C17.2035 17.609 17.7678 17.3074 18.3821 17.1852C18.9963 17.063 19.633 17.1258 20.2117 17.3654C20.7903 17.6051 21.2849 18.011 21.6328 18.5317C21.9808 19.0525 22.1665 19.6647 22.1665 20.291C22.1665 21.1309 21.8329 21.9364 21.239 22.5302C20.6451 23.1241 19.8397 23.4577 18.9998 23.4577Z" fill="#8E8E8E"/>
</svg>
