<svg width="15" height="15" viewBox="0 0 15 15" fill="currentColor" xmlns="http://www.w3.org/2000/svg">
<path id="Vector" d="M5.18887 14.7246C5.04818 14.7248 4.90884 14.6892 4.77886 14.6199C4.64889 14.5507 4.53084 14.449 4.4315 14.3208L0.318078 9.02899C0.21768 8.9013 0.137894 8.74934 0.0833075 8.58184C0.0287208 8.41435 0.000410517 8.23462 4.43159e-06 8.053C-0.000401654 7.87138 0.0271046 7.69144 0.0809414 7.52355C0.134778 7.35565 0.213883 7.2031 0.313708 7.07467C0.413532 6.94624 0.532107 6.84446 0.662613 6.7752C0.793119 6.70593 0.932982 6.67053 1.07416 6.67105C1.21533 6.67156 1.35504 6.70797 1.48524 6.77819C1.61544 6.8484 1.73356 6.95104 1.83282 7.08019L5.18887 11.3977L13.1731 1.12617C13.3741 0.868639 13.6463 0.72422 13.93 0.72461C14.2137 0.725 14.4857 0.870166 14.6863 1.12825C14.8869 1.38634 14.9997 1.73626 15 2.10124C15.0003 2.46621 14.888 2.81643 14.6878 3.07502L5.94626 14.3209C5.84691 14.4491 5.72885 14.5507 5.59888 14.62C5.4689 14.6893 5.32956 14.7248 5.18887 14.7246Z"/>
</svg>
