<svg width="14" height="15" viewBox="0 0 14 15" fill="none" xmlns="http://www.w3.org/2000/svg">
<path d="M10.5 1.6665H3.5C3.03587 1.6665 2.59075 1.85088 2.26256 2.17907C1.93437 2.50726 1.75 2.95238 1.75 3.4165V9.83317C1.75 10.2973 1.93437 10.7424 2.26256 11.0706C2.59075 11.3988 3.03587 11.5832 3.5 11.5832H5.01083L6.58583 13.164C6.64034 13.2181 6.70498 13.2608 6.77605 13.2899C6.84713 13.3189 6.92323 13.3336 7 13.3332C7.13903 13.3332 7.2735 13.2835 7.37917 13.1932L9.2575 11.5832H10.5C10.9641 11.5832 11.4092 11.3988 11.7374 11.0706C12.0656 10.7424 12.25 10.2973 12.25 9.83317V3.4165C12.25 2.95238 12.0656 2.50726 11.7374 2.17907C11.4092 1.85088 10.9641 1.6665 10.5 1.6665ZM11.0833 9.83317C11.0833 9.98788 11.0219 10.1363 10.9125 10.2456C10.8031 10.355 10.6547 10.4165 10.5 10.4165H9.04167C8.90263 10.4165 8.76817 10.4661 8.6625 10.5565L7.02917 11.9565L5.66417 10.5857C5.60966 10.5316 5.54502 10.4888 5.47395 10.4598C5.40287 10.4308 5.32677 10.4161 5.25 10.4165H3.5C3.34529 10.4165 3.19692 10.355 3.08752 10.2456C2.97812 10.1363 2.91667 9.98788 2.91667 9.83317V3.4165C2.91667 3.26179 2.97812 3.11342 3.08752 3.00402C3.19692 2.89463 3.34529 2.83317 3.5 2.83317H10.5C10.6547 2.83317 10.8031 2.89463 10.9125 3.00402C11.0219 3.11342 11.0833 3.26179 11.0833 3.4165V9.83317Z" fill="currentColor"/>
</svg>
