<svg width="128" height="107" viewBox="0 0 128 107" fill="none" xmlns="http://www.w3.org/2000/svg">
<path d="M64.4242 0L45 14.2142L64.4242 26.144L83.0694 14.2142L64.4242 0Z" fill="#E4E4E4"/>
<path d="M64.3599 27.9786L49.418 18.2319V35.6613L64.6197 42.9999L79.1718 34.6293V18.2319L64.3599 27.9786Z" fill="#E4E4E4"/>
<path d="M14.8125 62.2812L24.375 52.5469H22.0156V51.2969H29.375V52.5469H26.2031L17.5781 61.2188L27.7656 72.75H30.2031V74H21.5781V72.75H23.9219L14.8125 62.2812ZM14.1875 72.75H17.1562V74H8.01562V72.75H11.1406V52.5469H8.01562V51.2969H17.1562V52.5469H14.1875V72.75ZM44.9844 74C44.5469 74.0833 44.1406 74.1354 43.7656 74.1562C43.3906 74.1771 43.0938 74.1875 42.875 74.1875C42.3229 74.1875 41.8646 74.1406 41.5 74.0469C41.1458 73.9635 40.8646 73.8385 40.6562 73.6719C40.4479 73.5052 40.2969 73.3021 40.2031 73.0625C40.1094 72.8229 40.0521 72.5573 40.0312 72.2656H39.9531C39.6615 72.6719 39.349 73.0156 39.0156 73.2969C38.6823 73.5781 38.3333 73.8021 37.9688 73.9688C37.6042 74.1354 37.2292 74.2552 36.8438 74.3281C36.4688 74.401 36.0885 74.4375 35.7031 74.4375C35.0677 74.4375 34.5 74.349 34 74.1719C33.5 74.0052 33.0781 73.7656 32.7344 73.4531C32.3906 73.1406 32.1302 72.7708 31.9531 72.3438C31.776 71.9062 31.6875 71.4271 31.6875 70.9062C31.6875 69.4583 32.3958 68.3594 33.8125 67.6094C35.2396 66.849 37.2917 66.4427 39.9688 66.3906C39.9792 65.9219 39.9844 65.5 39.9844 65.125C39.9948 64.75 40 64.3802 40 64.0156C40 63.0677 39.8021 62.4062 39.4062 62.0312C39.0208 61.6458 38.4062 61.4531 37.5625 61.4531C37 61.4531 36.4948 61.5156 36.0469 61.6406C35.6094 61.7656 35.25 61.9323 34.9688 62.1406C35.2188 62.3802 35.401 62.6354 35.5156 62.9062C35.6406 63.1667 35.7031 63.4271 35.7031 63.6875C35.7031 64.125 35.5625 64.4896 35.2812 64.7812C35 65.0729 34.6146 65.2188 34.125 65.2188C33.9167 65.2188 33.7135 65.1875 33.5156 65.125C33.3177 65.0625 33.1458 64.9635 33 64.8281C32.8542 64.6927 32.7344 64.526 32.6406 64.3281C32.5573 64.1198 32.5156 63.8802 32.5156 63.6094C32.5156 63.1823 32.6302 62.7708 32.8594 62.375C33.099 61.9688 33.4479 61.6094 33.9062 61.2969C34.375 60.9844 34.9531 60.7344 35.6406 60.5469C36.3385 60.3594 37.151 60.2656 38.0781 60.2656C38.8281 60.2656 39.4896 60.3385 40.0625 60.4844C40.6458 60.6302 41.1354 60.875 41.5312 61.2188C41.9375 61.5521 42.2396 62 42.4375 62.5625C42.6458 63.125 42.75 63.8229 42.75 64.6562C42.75 64.8646 42.7448 65.2083 42.7344 65.6875C42.7344 66.1562 42.7292 66.6771 42.7188 67.25C42.7083 67.8229 42.6979 68.4062 42.6875 69C42.6875 69.5833 42.6875 70.099 42.6875 70.5469C42.6875 71.0052 42.6979 71.3906 42.7188 71.7031C42.7396 72.0052 42.7917 72.25 42.875 72.4375C42.9583 72.6146 43.0833 72.7448 43.25 72.8281C43.4167 72.901 43.651 72.9375 43.9531 72.9375C44.2135 72.9375 44.5573 72.9062 44.9844 72.8438V74ZM39.9688 67.5625C38.8333 67.5938 37.9167 67.6823 37.2188 67.8281C36.5208 67.9635 35.9792 68.1615 35.5938 68.4219C35.2083 68.6719 34.9479 68.9792 34.8125 69.3438C34.6771 69.7083 34.6094 70.125 34.6094 70.5938C34.6094 71.4062 34.776 72.0156 35.1094 72.4219C35.4531 72.8177 35.9219 73.0156 36.5156 73.0156C36.8385 73.0156 37.1979 72.9479 37.5938 72.8125C38 72.6771 38.3802 72.4583 38.7344 72.1562C39.0885 71.8438 39.3802 71.4375 39.6094 70.9375C39.849 70.4375 39.9688 69.8177 39.9688 69.0781V67.5625ZM51.7031 72.75H53.8125V74H46.5469V72.75H48.8906V61.9375H46.5469V60.6875H51.7031V62.9531H51.7656C52.1823 62.0885 52.7448 61.4271 53.4531 60.9688C54.1615 60.5 55.0729 60.2656 56.1875 60.2656C57.3438 60.2656 58.2448 60.5156 58.8906 61.0156C59.5365 61.5156 59.9635 62.2865 60.1719 63.3281H60.2344C60.651 62.3177 61.2292 61.5573 61.9688 61.0469C62.7188 60.526 63.6719 60.2656 64.8281 60.2656C66.2344 60.2656 67.276 60.6354 67.9531 61.375C68.6406 62.1042 68.9844 63.151 68.9844 64.5156V72.75H71.25V74H64.0625V72.75H66.1719V64.0781C66.1719 63.2552 65.9844 62.651 65.6094 62.2656C65.2344 61.8698 64.7031 61.6719 64.0156 61.6719C63.5156 61.6719 63.0417 61.7865 62.5938 62.0156C62.1562 62.2344 61.7656 62.5781 61.4219 63.0469C61.0885 63.5156 60.8229 64.1146 60.625 64.8438C60.4375 65.5729 60.3438 66.4375 60.3438 67.4375V72.75H62.4531V74H55.4219V72.75H57.5312V64.0625C57.5312 63.25 57.3438 62.651 56.9688 62.2656C56.5938 61.8698 56.0625 61.6719 55.375 61.6719C54.875 61.6719 54.401 61.7865 53.9531 62.0156C53.5156 62.2344 53.125 62.5781 52.7812 63.0469C52.4479 63.5156 52.1823 64.1146 51.9844 64.8438C51.7969 65.5729 51.7031 66.4375 51.7031 67.4375V72.75ZM77.9062 62.6875H77.9688C78.4271 61.8438 79.0208 61.2292 79.75 60.8438C80.4792 60.4583 81.2917 60.2656 82.1875 60.2656C83.0729 60.2656 83.8906 60.4323 84.6406 60.7656C85.401 61.099 86.0573 61.5729 86.6094 62.1875C87.1615 62.7917 87.5885 63.526 87.8906 64.3906C88.2031 65.2552 88.3594 66.2135 88.3594 67.2656C88.3594 68.3802 88.1875 69.3802 87.8438 70.2656C87.5104 71.151 87.0573 71.901 86.4844 72.5156C85.9115 73.1302 85.2448 73.6042 84.4844 73.9375C83.724 74.2708 82.9167 74.4375 82.0625 74.4375C81.2188 74.4375 80.4427 74.2552 79.7344 73.8906C79.026 73.5156 78.4375 72.9219 77.9688 72.1094H77.9062V81.3125H80.4062V82.5625H72.75V81.3125H75.0938V61.9375H72.75V60.6875H77.9062V62.6875ZM85.2656 67.3281C85.2656 66.1302 85.1823 65.1562 85.0156 64.4062C84.849 63.6458 84.6094 63.0521 84.2969 62.625C83.9948 62.1875 83.6354 61.8906 83.2188 61.7344C82.8021 61.5781 82.3438 61.5 81.8438 61.5C81.125 61.5 80.5156 61.651 80.0156 61.9531C79.5156 62.2552 79.1094 62.6719 78.7969 63.2031C78.4844 63.7344 78.2552 64.3594 78.1094 65.0781C77.974 65.7969 77.9062 66.5729 77.9062 67.4062C77.9062 68.2708 77.9688 69.0156 78.0938 69.6406C78.2292 70.2656 78.4062 70.7969 78.625 71.2344C78.8438 71.6615 79.0938 72.0052 79.375 72.2656C79.6562 72.526 79.9427 72.724 80.2344 72.8594C80.526 72.9948 80.8125 73.0885 81.0938 73.1406C81.375 73.1823 81.6302 73.2031 81.8594 73.2031C82.3385 73.2031 82.7865 73.125 83.2031 72.9688C83.6198 72.8125 83.9792 72.5208 84.2812 72.0938C84.5833 71.6667 84.8229 71.0729 85 70.3125C85.1771 69.5417 85.2656 68.5469 85.2656 67.3281ZM101.375 61.9375H99.1094V60.6875H104.188V72.75H106.531V74H101.375V72H101.312C100.854 72.8333 100.286 73.4479 99.6094 73.8438C98.9323 74.2396 98.0573 74.4375 96.9844 74.4375C95.4948 74.4375 94.3854 74.0781 93.6562 73.3594C92.9375 72.6302 92.5781 71.5729 92.5781 70.1875V61.9375H90.3125V60.6875H95.3906V70.6562C95.3906 71.5 95.5833 72.1094 95.9688 72.4844C96.3646 72.849 96.9271 73.0312 97.6562 73.0312C98.1667 73.0312 98.6458 72.9375 99.0938 72.75C99.5521 72.5521 99.9479 72.2344 100.281 71.7969C100.625 71.3594 100.891 70.7865 101.078 70.0781C101.276 69.3698 101.375 68.5 101.375 67.4688V61.9375ZM117.406 65.1094C117.354 64.4323 117.24 63.8594 117.062 63.3906C116.896 62.9219 116.667 62.5417 116.375 62.25C116.083 61.9583 115.729 61.75 115.312 61.625C114.906 61.4896 114.438 61.4219 113.906 61.4219C113.5 61.4219 113.125 61.4635 112.781 61.5469C112.438 61.6198 112.141 61.7396 111.891 61.9062C111.641 62.0625 111.443 62.2708 111.297 62.5312C111.161 62.7917 111.094 63.1042 111.094 63.4688C111.094 63.8333 111.156 64.1354 111.281 64.375C111.417 64.6042 111.63 64.8125 111.922 65C112.224 65.1771 112.604 65.349 113.062 65.5156C113.531 65.6823 114.104 65.8802 114.781 66.1094C115.323 66.2969 115.859 66.4948 116.391 66.7031C116.922 66.9115 117.396 67.1719 117.812 67.4844C118.24 67.7969 118.583 68.1771 118.844 68.625C119.104 69.0625 119.234 69.599 119.234 70.2344C119.234 70.9531 119.073 71.5781 118.75 72.1094C118.427 72.6406 118 73.0781 117.469 73.4219C116.938 73.7656 116.333 74.0208 115.656 74.1875C114.979 74.3542 114.286 74.4375 113.578 74.4375C113.203 74.4375 112.802 74.4167 112.375 74.375C111.958 74.3333 111.542 74.276 111.125 74.2031C110.719 74.1302 110.328 74.0469 109.953 73.9531C109.589 73.849 109.266 73.7448 108.984 73.6406L108.875 69.1094H109.953C110.005 69.901 110.115 70.5677 110.281 71.1094C110.458 71.6406 110.698 72.0677 111 72.3906C111.312 72.7135 111.688 72.9427 112.125 73.0781C112.573 73.2135 113.094 73.2812 113.688 73.2812C114.135 73.2812 114.547 73.2448 114.922 73.1719C115.307 73.0885 115.641 72.9635 115.922 72.7969C116.203 72.6198 116.422 72.3906 116.578 72.1094C116.745 71.8281 116.828 71.4896 116.828 71.0938C116.828 70.75 116.766 70.4688 116.641 70.25C116.516 70.0208 116.318 69.8177 116.047 69.6406C115.776 69.4635 115.427 69.2969 115 69.1406C114.573 68.9844 114.062 68.8021 113.469 68.5938C112.875 68.3854 112.302 68.1719 111.75 67.9531C111.208 67.724 110.729 67.4531 110.312 67.1406C109.896 66.8177 109.562 66.4323 109.312 65.9844C109.062 65.5365 108.938 64.9896 108.938 64.3438C108.938 63.6354 109.083 63.026 109.375 62.5156C109.667 61.9948 110.052 61.5677 110.531 61.2344C111.021 60.901 111.578 60.6562 112.203 60.5C112.839 60.3438 113.495 60.2656 114.172 60.2656C114.516 60.2656 114.875 60.2865 115.25 60.3281C115.625 60.3594 115.995 60.4062 116.359 60.4688C116.734 60.5312 117.089 60.6042 117.422 60.6875C117.766 60.7604 118.078 60.8333 118.359 60.9062L118.469 65.1094H117.406Z" fill="#E4E4E4"/>
<path d="M128 95L32.7024 95.2555L32.1914 102.026L128 102.154V95Z" fill="#E4E4E4"/>
<path d="M32.7026 95.2555L0 96.9824L32.1917 102.026L32.7026 95.2555Z" fill="#F6F6F6"/>
<path d="M12.519 96.2773L0.510979 96.8961L0 96.9823L10.7306 98.7045L12.3912 97.427L12.519 96.2773Z" fill="#E4E4E4"/>
</svg>
