<svg width="16" height="16" viewBox="0 0 16 16" fill="none" xmlns="http://www.w3.org/2000/svg">
<g id="external-link-alt">
<path id="Vector" d="M12.0007 7.21398C11.8238 7.21398 11.6543 7.28422 11.5292 7.40925C11.4042 7.53427 11.334 7.70384 11.334 7.88065V12.6673C11.334 12.8441 11.2637 13.0137 11.1387 13.1387C11.0137 13.2637 10.8441 13.334 10.6673 13.334H3.33398C3.15717 13.334 2.9876 13.2637 2.86258 13.1387C2.73756 13.0137 2.66732 12.8441 2.66732 12.6673V5.33398C2.66732 5.15717 2.73756 4.9876 2.86258 4.86258C2.9876 4.73756 3.15717 4.66732 3.33398 4.66732H8.12065C8.29746 4.66732 8.46703 4.59708 8.59206 4.47206C8.71708 4.34703 8.78732 4.17746 8.78732 4.00065C8.78732 3.82384 8.71708 3.65427 8.59206 3.52925C8.46703 3.40422 8.29746 3.33398 8.12065 3.33398H3.33398C2.80355 3.33398 2.29484 3.5447 1.91977 3.91977C1.5447 4.29484 1.33398 4.80355 1.33398 5.33398V12.6673C1.33398 13.1978 1.5447 13.7065 1.91977 14.0815C2.29484 14.4566 2.80355 14.6673 3.33398 14.6673H10.6673C11.1978 14.6673 11.7065 14.4566 12.0815 14.0815C12.4566 13.7065 12.6673 13.1978 12.6673 12.6673V7.88065C12.6673 7.70384 12.5971 7.53427 12.4721 7.40925C12.347 7.28422 12.1775 7.21398 12.0007 7.21398ZM14.614 1.74732C14.5463 1.58442 14.4169 1.45497 14.254 1.38732C14.1738 1.35316 14.0878 1.33504 14.0007 1.33398H10.0007C9.82384 1.33398 9.65427 1.40422 9.52925 1.52925C9.40422 1.65427 9.33398 1.82384 9.33398 2.00065C9.33398 2.17746 9.40422 2.34703 9.52925 2.47206C9.65427 2.59708 9.82384 2.66732 10.0007 2.66732H12.394L5.52732 9.52732C5.46483 9.58929 5.41524 9.66303 5.38139 9.74427C5.34754 9.82551 5.33012 9.91264 5.33012 10.0007C5.33012 10.0887 5.34754 10.1758 5.38139 10.257C5.41524 10.3383 5.46483 10.412 5.52732 10.474C5.58929 10.5365 5.66303 10.5861 5.74427 10.6199C5.82551 10.6538 5.91264 10.6712 6.00065 10.6712C6.08866 10.6712 6.1758 10.6538 6.25704 10.6199C6.33828 10.5861 6.41201 10.5365 6.47398 10.474L13.334 3.60732V6.00065C13.334 6.17746 13.4042 6.34703 13.5292 6.47206C13.6543 6.59708 13.8238 6.66732 14.0007 6.66732C14.1775 6.66732 14.347 6.59708 14.4721 6.47206C14.5971 6.34703 14.6673 6.17746 14.6673 6.00065V2.00065C14.6663 1.91353 14.6481 1.82747 14.614 1.74732Z" fill="black"/>
</g>
</svg>
