<svg width="25" height="24" viewBox="0 0 25 24" fill="none" xmlns="http://www.w3.org/2000/svg">
<g id="Frame 1171277471">
<g id="Vector">
<path d="M20.7794 4.67134C19.7177 3.60934 18.3101 2.96366 16.8126 2.85172C15.3151 2.73977 13.8272 3.169 12.6194 4.06134C11.3471 3.11497 9.76341 2.68585 8.18734 2.86037C6.61126 3.0349 5.15986 3.80011 4.12539 5.00192C3.09092 6.20373 2.55024 7.75286 2.61222 9.33735C2.6742 10.9218 3.33423 12.424 4.45942 13.5413L11.9094 20.9913C12.0024 21.0851 12.113 21.1595 12.2348 21.2102C12.3567 21.261 12.4874 21.2871 12.6194 21.2871C12.7514 21.2871 12.8821 21.261 13.004 21.2102C13.1259 21.1595 13.2365 21.0851 13.3294 20.9913L20.7794 13.5413C21.3621 12.9591 21.8243 12.2677 22.1396 11.5067C22.455 10.7457 22.6173 9.93007 22.6173 9.10634C22.6173 8.28261 22.455 7.46695 22.1396 6.70597C21.8243 5.94499 21.3621 5.25361 20.7794 4.67134ZM19.3694 12.1313L12.6194 18.8713L5.86942 12.1313C5.27459 11.534 4.86939 10.7744 4.70465 9.94768C4.5399 9.12097 4.62295 8.26402 4.94337 7.48433C5.26379 6.70464 5.80731 6.03693 6.50576 5.56496C7.20421 5.09299 8.02648 4.83778 8.86942 4.83134C9.99553 4.8341 11.0745 5.28367 11.8694 6.08134C11.9624 6.17507 12.073 6.24946 12.1948 6.30023C12.3167 6.351 12.4474 6.37714 12.5794 6.37714C12.7114 6.37714 12.8421 6.351 12.964 6.30023C13.0859 6.24946 13.1965 6.17507 13.2894 6.08134C14.1077 5.37222 15.1649 5.00048 16.247 5.04136C17.329 5.08224 18.3551 5.53269 19.1176 6.30153C19.8801 7.07037 20.322 8.10018 20.3539 9.18253C20.3858 10.2649 20.0053 11.3189 19.2894 12.1313H19.3694Z" fill="#EB003B"/>
<path d="M19.3694 12.1313L12.6194 18.8713L5.86942 12.1313C5.27459 11.534 4.86939 10.7744 4.70465 9.94768C4.5399 9.12097 4.62295 8.26402 4.94337 7.48433C5.26379 6.70464 5.80731 6.03693 6.50576 5.56496C7.20421 5.09299 8.02648 4.83778 8.86942 4.83134C9.99553 4.8341 11.0745 5.28367 11.8694 6.08134C11.9624 6.17507 12.073 6.24946 12.1948 6.30023C12.3167 6.351 12.4474 6.37714 12.5794 6.37714C12.7114 6.37714 12.8421 6.351 12.964 6.30023C13.0859 6.24946 13.1965 6.17507 13.2894 6.08134C14.1077 5.37222 15.1649 5.00048 16.247 5.04136C17.329 5.08224 18.3551 5.53269 19.1176 6.30153C19.8801 7.07037 20.322 8.10018 20.3539 9.18253C20.3858 10.2649 20.0053 11.3189 19.2894 12.1313H19.3694Z" fill="#EB003B"/>
</g>
</g>
</svg>
