<svg width="19" height="18" viewBox="0 0 19 18" fill="none" xmlns="http://www.w3.org/2000/svg">
<path d="M4.48933 10.8782L3.86275 13.2173L1.57262 13.2657C0.88821 11.9963 0.5 10.5439 0.5 9.00049C0.5 7.50802 0.862966 6.1006 1.50635 4.86133H1.50684L3.5457 5.23512L4.43884 7.26174C4.25191 7.80672 4.15002 8.39174 4.15002 9.00049C4.15009 9.66117 4.26977 10.2942 4.48933 10.8782Z" fill="#FBBB00"/>
<path d="M18.3425 7.31934C18.4458 7.86379 18.4997 8.42606 18.4997 9.00071C18.4997 9.64508 18.432 10.2736 18.3029 10.8799C17.8648 12.9431 16.7199 14.7446 15.134 16.0195L15.1335 16.019L12.5655 15.888L12.202 13.6191C13.2544 13.0019 14.0768 12.0361 14.51 10.8799H9.69727V7.31934H14.5802H18.3425Z" fill="#518EF8"/>
<path d="M15.136 16.0185L15.1365 16.019C13.5941 17.2587 11.6348 18.0005 9.50192 18.0005C6.07438 18.0005 3.0944 16.0848 1.57422 13.2655L4.49092 10.8779C5.25099 12.9064 7.20783 14.3505 9.50192 14.3505C10.488 14.3505 11.4118 14.0839 12.2045 13.6186L15.136 16.0185Z" fill="#28B446"/>
<path d="M15.2447 2.07204L12.329 4.4591C11.5086 3.94629 10.5388 3.65005 9.49984 3.65005C7.15381 3.65005 5.16038 5.16032 4.43838 7.26158L1.50635 4.86116H1.50586C3.00378 1.97315 6.02135 0 9.49984 0C11.6836 0 13.686 0.777896 15.2447 2.07204Z" fill="#F14336"/>
</svg>
