<svg width="18" height="19" viewBox="0 0 18 19" fill="none" xmlns="http://www.w3.org/2000/svg">
<path id="Vector" d="M14.95 0.155273H3.05C2.3737 0.155273 1.7251 0.439737 1.24688 0.946085C0.76866 1.45243 0.5 2.13919 0.5 2.85527V15.4553C0.5 16.1714 0.76866 16.8581 1.24688 17.3645C1.7251 17.8708 2.3737 18.1553 3.05 18.1553H14.95C15.0898 18.1532 15.2292 18.1382 15.3665 18.1103L15.6215 18.0473H15.681H15.7235L16.038 17.9213L16.1485 17.8583C16.2335 17.8043 16.327 17.7593 16.412 17.6963C16.5255 17.6079 16.6334 17.5117 16.735 17.4083L16.7945 17.3273C16.878 17.2377 16.9547 17.1414 17.024 17.0393L17.1005 16.9223C17.1599 16.8221 17.2111 16.7167 17.2535 16.6073C17.2768 16.5641 17.2967 16.5189 17.313 16.4723C17.3555 16.3643 17.381 16.2473 17.415 16.1303V15.9953C17.4632 15.8194 17.4917 15.6382 17.5 15.4553V2.85527C17.5 2.13919 17.2313 1.45243 16.7531 0.946085C16.2749 0.439737 15.6263 0.155273 14.95 0.155273ZM3.05 16.3553C2.82457 16.3553 2.60837 16.2605 2.44896 16.0917C2.28955 15.9229 2.2 15.694 2.2 15.4553V11.5763L4.9965 8.60627C5.07552 8.52192 5.16953 8.45496 5.27311 8.40927C5.37669 8.36358 5.48779 8.34006 5.6 8.34006C5.71221 8.34006 5.82331 8.36358 5.92689 8.40927C6.03047 8.45496 6.12448 8.52192 6.2035 8.60627L13.5135 16.3553H3.05ZM15.8 15.4553C15.7992 15.5662 15.779 15.6761 15.7405 15.7793C15.7211 15.8231 15.6983 15.8653 15.6725 15.9053C15.6498 15.9434 15.6242 15.9795 15.596 16.0133L11.0485 11.1983L11.7965 10.4063C11.8755 10.3219 11.9695 10.255 12.0731 10.2093C12.1767 10.1636 12.2878 10.1401 12.4 10.1401C12.5122 10.1401 12.6233 10.1636 12.7269 10.2093C12.8305 10.255 12.9245 10.3219 13.0035 10.4063L15.8 13.3763V15.4553ZM15.8 10.8293L14.202 9.15527C13.7156 8.66657 13.0706 8.39412 12.4 8.39412C11.7294 8.39412 11.0844 8.66657 10.598 9.15527L9.85 9.94727L7.402 7.35527C6.91556 6.86657 6.27056 6.59412 5.6 6.59412C4.92944 6.59412 4.28444 6.86657 3.798 7.35527L2.2 9.02927V2.85527C2.2 2.61658 2.28955 2.38766 2.44896 2.21888C2.60837 2.05009 2.82457 1.95527 3.05 1.95527H14.95C15.1754 1.95527 15.3916 2.05009 15.551 2.21888C15.7104 2.38766 15.8 2.61658 15.8 2.85527V10.8293ZM10.275 3.75527C10.0228 3.75527 9.77632 3.83445 9.56665 3.98279C9.35698 4.13113 9.19356 4.34197 9.09705 4.58865C9.00055 4.83533 8.9753 5.10677 9.0245 5.36865C9.0737 5.63052 9.19513 5.87107 9.37344 6.05987C9.55175 6.24867 9.77893 6.37724 10.0263 6.42933C10.2736 6.48142 10.5299 6.45469 10.7629 6.35251C10.9959 6.25033 11.195 6.0773 11.3351 5.85529C11.4752 5.63329 11.55 5.37228 11.55 5.10527C11.55 4.74723 11.4157 4.40385 11.1766 4.15068C10.9375 3.8975 10.6132 3.75527 10.275 3.75527Z" fill="#0B0B0B"/>
</svg>
