<svg width="19" height="18" viewBox="0 0 19 18" fill="none" xmlns="http://www.w3.org/2000/svg">
<g id="kakao_talk">
<path id="bg" d="M9.49662 0.632812C4.52854 0.632812 0.5 3.82895 0.5 7.77312C0.5 10.3232 2.18306 12.5571 4.7178 13.8254L3.80529 17.1065C3.80529 17.1065 3.7884 17.2595 3.88641 17.3173C3.98442 17.3751 4.1027 17.3309 4.1027 17.3309C4.38659 17.2901 7.38096 15.1718 7.90481 14.8046C8.42189 14.8794 8.95926 14.9168 9.50338 14.9168C14.4715 14.9168 18.5 11.7207 18.5 7.77652C18.5 3.83235 14.4647 0.632812 9.49662 0.632812Z" fill="black"/>
<path id="talk" d="M4.52212 10.2619C4.23485 10.2619 4.00166 10.0375 4.00166 9.76206V6.65772H3.19054C2.91003 6.65772 2.68359 6.42991 2.68359 6.1477C2.68359 5.86549 2.91341 5.63768 3.19054 5.63768H5.85032C6.13083 5.63768 6.35727 5.86549 6.35727 6.1477C6.35727 6.42991 6.12745 6.65772 5.85032 6.65772H5.03921V9.76206C5.03921 10.0341 4.80263 10.2619 4.51874 10.2619H4.52212ZM9.07451 10.2551C8.85821 10.2551 8.69261 10.1667 8.64191 10.0239L8.38506 9.34384H6.80338L6.54653 10.0239C6.49584 10.1667 6.33023 10.2551 6.11394 10.2551C5.99903 10.2551 5.8875 10.2313 5.78273 10.1871C5.64078 10.1191 5.50222 9.93886 5.66106 9.44584L6.90139 6.1579C6.98926 5.90629 7.25626 5.64788 7.59422 5.64108C7.93219 5.63428 8.20256 5.90629 8.28705 6.1579L9.52738 9.44584C9.68622 9.93886 9.54766 10.1259 9.40571 10.1871C9.30432 10.2347 9.18941 10.2551 9.07451 10.2551ZM8.11131 8.419L7.59422 6.93653L7.07713 8.419H8.11131ZM10.3622 10.1871C10.0918 10.1871 9.86534 9.97287 9.86534 9.71105V6.1579C9.86534 5.86889 10.1019 5.63428 10.3959 5.63428C10.69 5.63428 10.9266 5.87229 10.9266 6.1579V9.22483H12.0283C12.2987 9.22483 12.5251 9.43904 12.5251 9.70085C12.5251 9.96267 12.3021 10.1769 12.0283 10.1769L10.3622 10.1871ZM12.7245 9.73146V6.1613C12.7245 5.87229 12.9611 5.63768 13.245 5.63768C13.5289 5.63768 13.7655 5.87569 13.7655 6.1613V7.28335L15.2187 5.82129C15.3787 5.66035 15.6811 5.67445 15.8642 5.85869C16.0362 6.03175 16.081 6.32427 15.9014 6.50812L14.7118 7.69817L15.9893 9.39824C16.1609 9.6193 16.1193 9.96362 15.8879 10.1259C15.6597 10.2959 15.3246 10.2392 15.1612 10.0239L13.9446 8.402L13.7655 8.58221V9.72126C13.7655 10.3997 12.7245 10.4259 12.7245 9.73146Z" fill="black" fill-opacity="0.9"/>
</g>
</svg>
