<svg width="128" height="107" viewBox="0 0 128 107" fill="none" xmlns="http://www.w3.org/2000/svg">
<path d="M64.4243 0L45.0001 14.2142L64.4243 26.144L83.0695 14.2142L64.4243 0Z" fill="#5E44AC"/>
<path d="M64.3597 27.9786L49.4178 18.2319V35.6613L64.6195 42.9999L79.1716 34.6293V18.2319L64.3597 27.9786Z" fill="#5E44AC"/>
<path d="M14.8126 62.2812L24.3751 52.5469H22.0157V51.2969H29.3751V52.5469H26.2032L17.5782 61.2188L27.7657 72.75H30.2032V74H21.5782V72.75H23.922L14.8126 62.2812ZM14.1876 72.75H17.1564V74H8.01575V72.75H11.1407V52.5469H8.01575V51.2969H17.1564V52.5469H14.1876V72.75ZM44.9845 74C44.547 74.0833 44.1407 74.1354 43.7657 74.1562C43.3907 74.1771 43.0939 74.1875 42.8751 74.1875C42.323 74.1875 41.8647 74.1406 41.5001 74.0469C41.146 73.9635 40.8647 73.8385 40.6564 73.6719C40.448 73.5052 40.297 73.3021 40.2032 73.0625C40.1095 72.8229 40.0522 72.5573 40.0314 72.2656H39.9532C39.6616 72.6719 39.3491 73.0156 39.0157 73.2969C38.6824 73.5781 38.3335 73.8021 37.9689 73.9688C37.6043 74.1354 37.2293 74.2552 36.8439 74.3281C36.4689 74.401 36.0887 74.4375 35.7032 74.4375C35.0678 74.4375 34.5001 74.349 34.0001 74.1719C33.5001 74.0052 33.0782 73.7656 32.7345 73.4531C32.3907 73.1406 32.1303 72.7708 31.9532 72.3438C31.7762 71.9062 31.6876 71.4271 31.6876 70.9062C31.6876 69.4583 32.396 68.3594 33.8126 67.6094C35.2397 66.849 37.2918 66.4427 39.9689 66.3906C39.9793 65.9219 39.9845 65.5 39.9845 65.125C39.9949 64.75 40.0001 64.3802 40.0001 64.0156C40.0001 63.0677 39.8022 62.4062 39.4064 62.0312C39.021 61.6458 38.4064 61.4531 37.5626 61.4531C37.0001 61.4531 36.4949 61.5156 36.047 61.6406C35.6095 61.7656 35.2501 61.9323 34.9689 62.1406C35.2189 62.3802 35.4012 62.6354 35.5157 62.9062C35.6407 63.1667 35.7032 63.4271 35.7032 63.6875C35.7032 64.125 35.5626 64.4896 35.2814 64.7812C35.0001 65.0729 34.6147 65.2188 34.1251 65.2188C33.9168 65.2188 33.7137 65.1875 33.5157 65.125C33.3178 65.0625 33.146 64.9635 33.0001 64.8281C32.8543 64.6927 32.7345 64.526 32.6407 64.3281C32.5574 64.1198 32.5157 63.8802 32.5157 63.6094C32.5157 63.1823 32.6303 62.7708 32.8595 62.375C33.0991 61.9688 33.448 61.6094 33.9064 61.2969C34.3751 60.9844 34.9532 60.7344 35.6407 60.5469C36.3387 60.3594 37.1512 60.2656 38.0782 60.2656C38.8282 60.2656 39.4897 60.3385 40.0626 60.4844C40.646 60.6302 41.1355 60.875 41.5314 61.2188C41.9376 61.5521 42.2397 62 42.4376 62.5625C42.646 63.125 42.7501 63.8229 42.7501 64.6562C42.7501 64.8646 42.7449 65.2083 42.7345 65.6875C42.7345 66.1562 42.7293 66.6771 42.7189 67.25C42.7085 67.8229 42.698 68.4062 42.6876 69C42.6876 69.5833 42.6876 70.099 42.6876 70.5469C42.6876 71.0052 42.698 71.3906 42.7189 71.7031C42.7397 72.0052 42.7918 72.25 42.8751 72.4375C42.9585 72.6146 43.0835 72.7448 43.2501 72.8281C43.4168 72.901 43.6512 72.9375 43.9532 72.9375C44.2137 72.9375 44.5574 72.9062 44.9845 72.8438V74ZM39.9689 67.5625C38.8335 67.5938 37.9168 67.6823 37.2189 67.8281C36.521 67.9635 35.9793 68.1615 35.5939 68.4219C35.2085 68.6719 34.948 68.9792 34.8126 69.3438C34.6772 69.7083 34.6095 70.125 34.6095 70.5938C34.6095 71.4062 34.7762 72.0156 35.1095 72.4219C35.4532 72.8177 35.922 73.0156 36.5157 73.0156C36.8387 73.0156 37.198 72.9479 37.5939 72.8125C38.0001 72.6771 38.3803 72.4583 38.7345 72.1562C39.0887 71.8438 39.3803 71.4375 39.6095 70.9375C39.8491 70.4375 39.9689 69.8177 39.9689 69.0781V67.5625ZM51.7032 72.75H53.8126V74H46.547V72.75H48.8907V61.9375H46.547V60.6875H51.7032V62.9531H51.7657C52.1824 62.0885 52.7449 61.4271 53.4532 60.9688C54.1616 60.5 55.073 60.2656 56.1876 60.2656C57.3439 60.2656 58.2449 60.5156 58.8907 61.0156C59.5366 61.5156 59.9637 62.2865 60.172 63.3281H60.2345C60.6512 62.3177 61.2293 61.5573 61.9689 61.0469C62.7189 60.526 63.672 60.2656 64.8282 60.2656C66.2345 60.2656 67.2762 60.6354 67.9532 61.375C68.6407 62.1042 68.9845 63.151 68.9845 64.5156V72.75H71.2501V74H64.0626V72.75H66.172V64.0781C66.172 63.2552 65.9845 62.651 65.6095 62.2656C65.2345 61.8698 64.7032 61.6719 64.0157 61.6719C63.5157 61.6719 63.0418 61.7865 62.5939 62.0156C62.1564 62.2344 61.7657 62.5781 61.422 63.0469C61.0887 63.5156 60.823 64.1146 60.6251 64.8438C60.4376 65.5729 60.3439 66.4375 60.3439 67.4375V72.75H62.4532V74H55.422V72.75H57.5314V64.0625C57.5314 63.25 57.3439 62.651 56.9689 62.2656C56.5939 61.8698 56.0626 61.6719 55.3751 61.6719C54.8751 61.6719 54.4012 61.7865 53.9532 62.0156C53.5157 62.2344 53.1251 62.5781 52.7814 63.0469C52.448 63.5156 52.1824 64.1146 51.9845 64.8438C51.797 65.5729 51.7032 66.4375 51.7032 67.4375V72.75ZM77.9064 62.6875H77.9689C78.4272 61.8438 79.021 61.2292 79.7501 60.8438C80.4793 60.4583 81.2918 60.2656 82.1876 60.2656C83.073 60.2656 83.8907 60.4323 84.6407 60.7656C85.4012 61.099 86.0574 61.5729 86.6095 62.1875C87.1616 62.7917 87.5887 63.526 87.8907 64.3906C88.2032 65.2552 88.3595 66.2135 88.3595 67.2656C88.3595 68.3802 88.1876 69.3802 87.8439 70.2656C87.5105 71.151 87.0574 71.901 86.4845 72.5156C85.9116 73.1302 85.2449 73.6042 84.4845 73.9375C83.7241 74.2708 82.9168 74.4375 82.0626 74.4375C81.2189 74.4375 80.4428 74.2552 79.7345 73.8906C79.0262 73.5156 78.4376 72.9219 77.9689 72.1094H77.9064V81.3125H80.4064V82.5625H72.7501V81.3125H75.0939V61.9375H72.7501V60.6875H77.9064V62.6875ZM85.2657 67.3281C85.2657 66.1302 85.1824 65.1562 85.0157 64.4062C84.8491 63.6458 84.6095 63.0521 84.297 62.625C83.9949 62.1875 83.6355 61.8906 83.2189 61.7344C82.8022 61.5781 82.3439 61.5 81.8439 61.5C81.1251 61.5 80.5157 61.651 80.0157 61.9531C79.5157 62.2552 79.1095 62.6719 78.797 63.2031C78.4845 63.7344 78.2553 64.3594 78.1095 65.0781C77.9741 65.7969 77.9064 66.5729 77.9064 67.4062C77.9064 68.2708 77.9689 69.0156 78.0939 69.6406C78.2293 70.2656 78.4064 70.7969 78.6251 71.2344C78.8439 71.6615 79.0939 72.0052 79.3751 72.2656C79.6564 72.526 79.9428 72.724 80.2345 72.8594C80.5262 72.9948 80.8126 73.0885 81.0939 73.1406C81.3751 73.1823 81.6303 73.2031 81.8595 73.2031C82.3387 73.2031 82.7866 73.125 83.2032 72.9688C83.6199 72.8125 83.9793 72.5208 84.2814 72.0938C84.5835 71.6667 84.823 71.0729 85.0001 70.3125C85.1772 69.5417 85.2657 68.5469 85.2657 67.3281ZM101.375 61.9375H99.1095V60.6875H104.188V72.75H106.531V74H101.375V72H101.313C100.854 72.8333 100.287 73.4479 99.6095 73.8438C98.9324 74.2396 98.0574 74.4375 96.9845 74.4375C95.4949 74.4375 94.3855 74.0781 93.6564 73.3594C92.9376 72.6302 92.5782 71.5729 92.5782 70.1875V61.9375H90.3126V60.6875H95.3907V70.6562C95.3907 71.5 95.5835 72.1094 95.9689 72.4844C96.3647 72.849 96.9272 73.0312 97.6564 73.0312C98.1668 73.0312 98.646 72.9375 99.0939 72.75C99.5522 72.5521 99.948 72.2344 100.281 71.7969C100.625 71.3594 100.891 70.7865 101.078 70.0781C101.276 69.3698 101.375 68.5 101.375 67.4688V61.9375ZM117.406 65.1094C117.354 64.4323 117.24 63.8594 117.063 63.3906C116.896 62.9219 116.667 62.5417 116.375 62.25C116.083 61.9583 115.729 61.75 115.313 61.625C114.906 61.4896 114.438 61.4219 113.906 61.4219C113.5 61.4219 113.125 61.4635 112.781 61.5469C112.438 61.6198 112.141 61.7396 111.891 61.9062C111.641 62.0625 111.443 62.2708 111.297 62.5312C111.162 62.7917 111.094 63.1042 111.094 63.4688C111.094 63.8333 111.156 64.1354 111.281 64.375C111.417 64.6042 111.63 64.8125 111.922 65C112.224 65.1771 112.604 65.349 113.063 65.5156C113.531 65.6823 114.104 65.8802 114.781 66.1094C115.323 66.2969 115.859 66.4948 116.391 66.7031C116.922 66.9115 117.396 67.1719 117.813 67.4844C118.24 67.7969 118.583 68.1771 118.844 68.625C119.104 69.0625 119.234 69.599 119.234 70.2344C119.234 70.9531 119.073 71.5781 118.75 72.1094C118.427 72.6406 118 73.0781 117.469 73.4219C116.938 73.7656 116.333 74.0208 115.656 74.1875C114.979 74.3542 114.287 74.4375 113.578 74.4375C113.203 74.4375 112.802 74.4167 112.375 74.375C111.958 74.3333 111.542 74.276 111.125 74.2031C110.719 74.1302 110.328 74.0469 109.953 73.9531C109.589 73.849 109.266 73.7448 108.984 73.6406L108.875 69.1094H109.953C110.005 69.901 110.115 70.5677 110.281 71.1094C110.458 71.6406 110.698 72.0677 111 72.3906C111.313 72.7135 111.688 72.9427 112.125 73.0781C112.573 73.2135 113.094 73.2812 113.688 73.2812C114.136 73.2812 114.547 73.2448 114.922 73.1719C115.307 73.0885 115.641 72.9635 115.922 72.7969C116.203 72.6198 116.422 72.3906 116.578 72.1094C116.745 71.8281 116.828 71.4896 116.828 71.0938C116.828 70.75 116.766 70.4688 116.641 70.25C116.516 70.0208 116.318 69.8177 116.047 69.6406C115.776 69.4635 115.427 69.2969 115 69.1406C114.573 68.9844 114.063 68.8021 113.469 68.5938C112.875 68.3854 112.302 68.1719 111.75 67.9531C111.208 67.724 110.729 67.4531 110.313 67.1406C109.896 66.8177 109.563 66.4323 109.313 65.9844C109.063 65.5365 108.938 64.9896 108.938 64.3438C108.938 63.6354 109.083 63.026 109.375 62.5156C109.667 61.9948 110.052 61.5677 110.531 61.2344C111.021 60.901 111.578 60.6562 112.203 60.5C112.839 60.3438 113.495 60.2656 114.172 60.2656C114.516 60.2656 114.875 60.2865 115.25 60.3281C115.625 60.3594 115.995 60.4062 116.359 60.4688C116.734 60.5312 117.089 60.6042 117.422 60.6875C117.766 60.7604 118.078 60.8333 118.359 60.9062L118.469 65.1094H117.406Z" fill="black"/>
<path d="M128 95L32.7023 95.2555L32.1913 102.026L128 102.154V95Z" fill="#5E44AC"/>
<path d="M32.7028 95.2556L0.00012207 96.9825L32.1918 102.026L32.7028 95.2556Z" fill="#FFE6C8"/>
<path d="M12.5191 96.2773L0.511101 96.8961L0.00012207 96.9823L10.7307 98.7045L12.3914 97.427L12.5191 96.2773Z" fill="#0B0B0B"/>
</svg>
