<svg width="158" height="68" viewBox="0 0 158 68" fill="none" xmlns="http://www.w3.org/2000/svg">
<path d="M67.9893 1.22724L42.2934 20.0309C40.6975 21.1987 40.7953 23.6119 42.4804 24.6469L68.18 40.4308C69.089 40.9891 70.237 40.9785 71.1355 40.4036L95.8003 24.6222C97.4281 23.5807 97.5244 21.2378 95.9876 20.0662L71.319 1.25992C70.3388 0.512694 68.9839 0.499397 67.9893 1.22724Z" fill="currentColor"/>
<path d="M68.0377 43.2499L50.2377 31.6389C48.3871 30.4317 45.9355 31.7596 45.9355 33.9691V54.6487C45.9355 55.7164 46.5466 56.69 47.5082 57.1542L68.6522 67.3615C69.4801 67.7611 70.452 67.726 71.2489 67.2676L91.5928 55.5654C92.4558 55.069 92.9878 54.1493 92.9878 53.1537V33.9937C92.9878 31.7792 90.5262 30.4523 88.6763 31.6696L71.0871 43.2438C70.1624 43.8523 68.9649 43.8547 68.0377 43.2499Z" fill="currentColor"/>
<path d="M8.96839 44.5377V52.7618C8.69549 52.8362 8.26134 52.9106 7.66593 52.9851C7.07052 53.0595 6.48751 53.0967 5.91691 53.0967C5.3463 53.0967 4.83772 53.0471 4.39116 52.9479C3.96941 52.8734 3.60968 52.7246 3.31198 52.5013C3.01427 52.278 2.79099 51.9679 2.64214 51.571C2.49329 51.174 2.41886 50.653 2.41886 50.008V30.3594C2.69176 30.3098 3.12591 30.2478 3.72132 30.1734C4.31674 30.0741 4.88734 30.0245 5.43313 30.0245C6.00374 30.0245 6.49991 30.0741 6.92166 30.1734C7.36822 30.2478 7.74035 30.3966 8.03806 30.6199C8.33577 30.8432 8.55905 31.1533 8.7079 31.5502C8.85675 31.9472 8.93118 32.4682 8.93118 33.1132V39.0301L16.6715 30.1361C18.3585 30.1361 19.5618 30.4587 20.2812 31.1037C21.0255 31.7239 21.3976 32.4682 21.3976 33.3365C21.3976 33.9815 21.2364 34.5893 20.9138 35.1599C20.5913 35.7305 20.0703 36.3756 19.3509 37.095L14.6992 41.7467C15.3195 42.4413 15.9645 43.1608 16.6343 43.905C17.329 44.6493 17.9988 45.3812 18.6438 46.1006C19.3137 46.7953 19.9463 47.4651 20.5417 48.1101C21.1619 48.7552 21.6953 49.3134 22.1419 49.7847C22.1419 50.3305 22.0426 50.8143 21.8442 51.236C21.6457 51.6578 21.3728 52.0175 21.0255 52.3152C20.703 52.6129 20.3308 52.8362 19.9091 52.9851C19.4873 53.1339 19.0408 53.2084 18.5694 53.2084C17.5522 53.2084 16.7212 52.9603 16.0761 52.4641C15.4311 51.9431 14.8109 51.3353 14.2155 50.6406L8.96839 44.5377ZM32.5703 48.8916C32.9921 48.8916 33.451 48.8544 33.9472 48.78C34.4682 48.6807 34.8527 48.5567 35.1008 48.4078V45.4308L32.4215 45.6541C31.7268 45.7037 31.1562 45.8525 30.7096 46.1006C30.2631 46.3487 30.0398 46.7208 30.0398 47.217C30.0398 47.7132 30.2259 48.1225 30.598 48.4451C30.9949 48.7428 31.6524 48.8916 32.5703 48.8916ZM32.2726 34.2668C33.6123 34.2668 34.8279 34.4033 35.9195 34.6762C37.0359 34.9491 37.9786 35.3708 38.7477 35.9414C39.5416 36.4872 40.1494 37.1943 40.5712 38.0626C40.9929 38.9061 41.2038 39.9108 41.2038 41.0768V49.4126C41.2038 50.0576 41.0177 50.591 40.6456 51.0128C40.2983 51.4097 39.8765 51.757 39.3803 52.0547C37.7678 53.0223 35.4978 53.5061 32.5703 53.5061C31.2554 53.5061 30.0646 53.382 28.9978 53.1339C27.9559 52.8858 27.0503 52.5137 26.2813 52.0175C25.537 51.5214 24.954 50.8887 24.5322 50.1197C24.1353 49.3506 23.9368 48.4575 23.9368 47.4403C23.9368 45.7285 24.4454 44.4136 25.4626 43.4957C26.4797 42.5778 28.0551 42.0072 30.1887 41.7839L35.0636 41.2629V41.0024C35.0636 40.283 34.7411 39.7744 34.0961 39.4767C33.4758 39.1541 32.5703 38.9929 31.3795 38.9929C30.4367 38.9929 29.5188 39.0921 28.6257 39.2906C27.7326 39.4891 26.9263 39.7372 26.2068 40.0349C25.8843 39.8116 25.6114 39.4767 25.3882 39.0301C25.1649 38.5587 25.0532 38.075 25.0532 37.5788C25.0532 36.9338 25.2021 36.4252 25.4998 36.053C25.8223 35.6561 26.3061 35.3212 26.9511 35.0483C27.6706 34.7754 28.5141 34.5769 29.4816 34.4529C30.474 34.3288 31.4043 34.2668 32.2726 34.2668ZM105.52 34.2668C107.008 34.2668 108.385 34.4653 109.651 34.8622C110.941 35.2344 112.045 35.8174 112.963 36.6112C113.88 37.4051 114.6 38.4099 115.121 39.6255C115.642 40.8163 115.902 42.2428 115.902 43.905C115.902 45.4928 115.679 46.8821 115.233 48.0729C114.786 49.2637 114.153 50.2685 113.335 51.0872C112.516 51.8811 111.524 52.4765 110.358 52.8734C109.216 53.2704 107.939 53.4688 106.525 53.4688C105.458 53.4688 104.466 53.3076 103.548 52.9851V59.1625C103.299 59.2369 102.903 59.3113 102.357 59.3857C101.811 59.485 101.253 59.5346 100.682 59.5346C100.136 59.5346 99.6402 59.4974 99.1936 59.423C98.7719 59.3485 98.4122 59.1997 98.1145 58.9764C97.8167 58.7531 97.5935 58.443 97.4446 58.0461C97.2958 57.6739 97.2213 57.1778 97.2213 56.5575V38.6952C97.2213 38.0253 97.3578 37.4796 97.6307 37.0578C97.9284 36.6361 98.3253 36.2515 98.8215 35.9042C99.5906 35.408 100.546 35.0111 101.687 34.7134C102.828 34.4157 104.106 34.2668 105.52 34.2668ZM105.594 48.4823C108.15 48.4823 109.427 46.9565 109.427 43.905C109.427 42.3173 109.105 41.1389 108.46 40.3698C107.84 39.6007 106.934 39.2162 105.743 39.2162C105.272 39.2162 104.85 39.2782 104.478 39.4022C104.106 39.5015 103.783 39.6255 103.51 39.7744V47.9613C103.808 48.1101 104.131 48.2342 104.478 48.3334C104.825 48.4327 105.197 48.4823 105.594 48.4823ZM118.99 35.0855C119.238 35.0111 119.622 34.9366 120.143 34.8622C120.689 34.7878 121.247 34.7506 121.818 34.7506C122.364 34.7506 122.847 34.7878 123.269 34.8622C123.716 34.9366 124.088 35.0855 124.386 35.3088C124.683 35.5321 124.907 35.8422 125.055 36.2391C125.229 36.6112 125.316 37.1074 125.316 37.7276V45.7285C125.316 46.7457 125.564 47.4775 126.06 47.9241C126.556 48.3458 127.276 48.5567 128.219 48.5567C128.789 48.5567 129.248 48.5071 129.595 48.4078C129.968 48.3086 130.253 48.2094 130.451 48.1101V35.0855C130.699 35.0111 131.084 34.9366 131.605 34.8622C132.151 34.7878 132.709 34.7506 133.28 34.7506C133.825 34.7506 134.309 34.7878 134.731 34.8622C135.177 34.9366 135.55 35.0855 135.847 35.3088C136.145 35.5321 136.368 35.8422 136.517 36.2391C136.691 36.6112 136.778 37.1074 136.778 37.7276V49.0405C136.778 50.2809 136.257 51.2112 135.215 51.8315C134.346 52.3773 133.304 52.7866 132.089 53.0595C130.898 53.3572 129.595 53.5061 128.181 53.5061C126.842 53.5061 125.601 53.3572 124.46 53.0595C123.344 52.7618 122.376 52.3028 121.557 51.6826C120.739 51.0624 120.106 50.2685 119.659 49.301C119.213 48.3086 118.99 47.1178 118.99 45.7285V35.0855ZM155.906 47.5147C155.906 49.4002 155.199 50.8763 153.785 51.9431C152.371 53.0099 150.287 53.5433 147.533 53.5433C146.491 53.5433 145.524 53.4688 144.631 53.32C143.738 53.1711 142.969 52.9479 142.323 52.6502C141.703 52.3276 141.207 51.9307 140.835 51.4593C140.488 50.988 140.314 50.4298 140.314 49.7847C140.314 49.1893 140.438 48.6931 140.686 48.2962C140.934 47.8745 141.232 47.5271 141.579 47.2542C142.299 47.6512 143.117 48.0109 144.035 48.3334C144.978 48.6311 146.057 48.78 147.273 48.78C148.042 48.78 148.625 48.6683 149.022 48.4451C149.444 48.2218 149.654 47.9241 149.654 47.5519C149.654 47.2046 149.506 46.9317 149.208 46.7332C148.91 46.5348 148.414 46.3735 147.719 46.2495L146.603 46.0262C144.445 45.6044 142.832 44.947 141.765 44.0539C140.723 43.136 140.202 41.8335 140.202 40.1465C140.202 39.2286 140.401 38.3975 140.798 37.6532C141.195 36.9089 141.753 36.2887 142.472 35.7926C143.192 35.2964 144.048 34.9118 145.04 34.6389C146.057 34.366 147.174 34.2296 148.389 34.2296C149.307 34.2296 150.163 34.304 150.957 34.4529C151.776 34.5769 152.483 34.7754 153.078 35.0483C153.674 35.3212 154.145 35.6809 154.492 36.1275C154.84 36.5492 155.013 37.0578 155.013 37.6532C155.013 38.2238 154.902 38.72 154.678 39.1417C154.48 39.5387 154.219 39.8736 153.897 40.1465C153.698 40.0225 153.401 39.8984 153.004 39.7744C152.607 39.6255 152.173 39.5015 151.701 39.4022C151.23 39.2782 150.746 39.179 150.25 39.1045C149.779 39.0301 149.344 38.9929 148.947 38.9929C148.129 38.9929 147.496 39.0921 147.05 39.2906C146.603 39.4643 146.38 39.7496 146.38 40.1465C146.38 40.4194 146.504 40.6427 146.752 40.8163C147 40.99 147.471 41.1513 148.166 41.3001L149.32 41.5606C151.701 42.1064 153.388 42.8631 154.381 43.8306C155.398 44.7733 155.906 46.0014 155.906 47.5147Z" fill="currentColor"/>
</svg>
