<svg width="128" height="55" viewBox="0 0 128 55" fill="none" xmlns="http://www.w3.org/2000/svg">
<path d="M55.2793 0.988384L34.4053 16.1782C33.1013 17.1271 33.1809 19.0967 34.5572 19.9373L55.4343 32.6878C56.1709 33.1376 57.0992 33.1291 57.8274 32.6658L77.8638 19.9174C79.1935 19.0714 79.272 17.1589 78.0161 16.2067L57.9765 1.01481C57.1816 0.412211 56.0858 0.401477 55.2793 0.988384Z" fill="#E4E4E4"/>
<path d="M55.3187 34.9667L40.8383 25.5739C39.3336 24.5978 37.3457 25.6778 37.3457 27.4714V44.1671C37.3457 45.037 37.8445 45.8297 38.6286 46.2061L55.8182 54.4581C56.4887 54.7799 57.2745 54.7516 57.9201 54.3824L74.4584 44.9223C75.1626 44.5195 75.5971 43.7703 75.5971 42.959V27.4913C75.5971 25.6936 73.6012 24.6144 72.0969 25.5987L57.788 34.9618C57.0385 35.4522 56.0702 35.4542 55.3187 34.9667Z" fill="#E4E4E4"/>
<path d="M7.29092 36.4388V43.1247C7.06906 43.1852 6.71611 43.2457 6.23207 43.3062C5.74802 43.3667 5.27406 43.3969 4.81019 43.3969C4.34631 43.3969 3.93286 43.3566 3.56983 43.2759C3.22696 43.2154 2.93452 43.0944 2.6925 42.9129C2.45047 42.7314 2.26896 42.4793 2.14795 42.1566C2.02694 41.8339 1.96643 41.4103 1.96643 40.886V24.9125C2.18828 24.8722 2.54123 24.8217 3.02528 24.7612C3.50932 24.6806 3.9732 24.6402 4.4169 24.6402C4.88078 24.6402 5.28415 24.6806 5.62701 24.7612C5.99005 24.8217 6.29257 24.9427 6.5346 25.1243C6.77662 25.3058 6.95814 25.5579 7.07915 25.8806C7.20016 26.2033 7.26066 26.6268 7.26066 27.1512V31.9614L13.5532 24.731C14.9247 24.731 15.9029 24.9932 16.4878 25.5175C17.0928 26.0218 17.3953 26.6268 17.3953 27.3327C17.3953 27.8571 17.2642 28.3512 17.0021 28.8151C16.7399 29.279 16.3163 29.8034 15.7314 30.3882L11.9498 34.1698C12.4541 34.7346 12.9784 35.3194 13.523 35.9245C14.0877 36.5296 14.6323 37.1245 15.1566 37.7094C15.7012 38.2741 16.2155 38.8187 16.6995 39.3431C17.2037 39.8674 17.6374 40.3212 18.0004 40.7044C18.0004 41.1481 17.9197 41.5414 17.7584 41.8843C17.597 42.2272 17.3752 42.5196 17.0928 42.7616C16.8306 43.0036 16.5281 43.1852 16.1852 43.3062C15.8424 43.4272 15.4793 43.4877 15.0961 43.4877C14.2692 43.4877 13.5936 43.286 13.0692 42.8826C12.5448 42.4591 12.0406 41.965 11.5566 41.4002L7.29092 36.4388ZM26.4783 39.9784C26.8211 39.9784 27.1942 39.9481 27.5976 39.8876C28.0211 39.8069 28.3338 39.7061 28.5354 39.5851V37.1649L26.3572 37.3464C25.7925 37.3867 25.3287 37.5077 24.9656 37.7094C24.6026 37.9111 24.4211 38.2136 24.4211 38.617C24.4211 39.0204 24.5723 39.3531 24.8749 39.6153C25.1976 39.8574 25.732 39.9784 26.4783 39.9784ZM26.2362 28.089C27.3253 28.089 28.3136 28.2 29.201 28.4218C30.1086 28.6437 30.875 28.9865 31.5002 29.4504C32.1456 29.8941 32.6397 30.4689 32.9826 31.1748C33.3255 31.8605 33.4969 32.6774 33.4969 33.6253V40.4019C33.4969 40.9263 33.3456 41.3599 33.0431 41.7028C32.7607 42.0255 32.4179 42.3078 32.0145 42.5499C30.7036 43.3364 28.8581 43.7297 26.4783 43.7297C25.4093 43.7297 24.4412 43.6289 23.574 43.4272C22.7269 43.2255 21.9908 42.923 21.3655 42.5196C20.7605 42.1162 20.2865 41.6019 19.9437 40.9767C19.621 40.3515 19.4596 39.6254 19.4596 38.7985C19.4596 37.4069 19.8731 36.338 20.7 35.5917C21.5269 34.8455 22.8076 34.3816 24.5421 34.2001L28.5052 33.7766V33.5648C28.5052 32.9799 28.243 32.5664 27.7186 32.3244C27.2144 32.0622 26.4783 31.9311 25.5102 31.9311C24.7438 31.9311 23.9975 32.0118 23.2715 32.1732C22.5454 32.3345 21.8899 32.5362 21.305 32.7782C21.0428 32.5967 20.821 32.3244 20.6395 31.9614C20.458 31.5782 20.3672 31.1849 20.3672 30.7815C20.3672 30.2571 20.4882 29.8437 20.7302 29.5412C20.9924 29.2185 21.3857 28.9462 21.9101 28.7243C22.495 28.5025 23.1807 28.3411 23.9673 28.2403C24.774 28.1395 25.5303 28.089 26.2362 28.089ZM85.7831 28.089C86.9932 28.089 88.1126 28.2504 89.1412 28.5731C90.1899 28.8756 91.0874 29.3496 91.8337 29.995C92.5799 30.6403 93.1648 31.4572 93.5883 32.4454C94.0119 33.4135 94.2236 34.5732 94.2236 35.9245C94.2236 37.2153 94.0421 38.3447 93.6791 39.3128C93.3161 40.2809 92.8018 41.0977 92.1362 41.7633C91.4706 42.4087 90.6639 42.8927 89.716 43.2154C88.7882 43.5381 87.7495 43.6995 86.5999 43.6995C85.7327 43.6995 84.926 43.5684 84.1797 43.3062V48.3281C83.978 48.3886 83.6553 48.4491 83.2116 48.5096C82.7679 48.5903 82.3141 48.6307 81.8503 48.6307C81.4066 48.6307 81.0032 48.6004 80.6401 48.5399C80.2973 48.4794 80.0048 48.3584 79.7628 48.1769C79.5208 47.9954 79.3393 47.7432 79.2183 47.4205C79.0973 47.118 79.0368 46.7146 79.0368 46.2104V31.6891C79.0368 31.1446 79.1477 30.7009 79.3695 30.358C79.6116 30.0151 79.9342 29.7025 80.3376 29.4202C80.9628 29.0168 81.7393 28.6941 82.6671 28.4521C83.5948 28.21 84.6335 28.089 85.7831 28.089ZM85.8436 39.6456C87.921 39.6456 88.9597 38.4052 88.9597 35.9245C88.9597 34.6337 88.6975 33.6757 88.1731 33.0505C87.6689 32.4253 86.9327 32.1126 85.9646 32.1126C85.5814 32.1126 85.2386 32.1631 84.936 32.2639C84.6335 32.3446 84.3713 32.4454 84.1495 32.5664V39.222C84.3915 39.3431 84.6537 39.4439 84.936 39.5246C85.2184 39.6053 85.5209 39.6456 85.8436 39.6456ZM96.7334 28.7546C96.9351 28.6941 97.2477 28.6336 97.6713 28.5731C98.115 28.5126 98.5688 28.4823 99.0326 28.4823C99.4764 28.4823 99.8696 28.5126 100.213 28.5731C100.576 28.6336 100.878 28.7546 101.12 28.9361C101.362 29.1176 101.544 29.3697 101.665 29.6924C101.806 29.995 101.876 30.3983 101.876 30.9025V37.4069C101.876 38.2338 102.078 38.8288 102.481 39.1918C102.885 39.5347 103.47 39.7061 104.236 39.7061C104.7 39.7061 105.073 39.6658 105.355 39.5851C105.658 39.5044 105.89 39.4237 106.051 39.3431V28.7546C106.253 28.6941 106.566 28.6336 106.989 28.5731C107.433 28.5126 107.887 28.4823 108.35 28.4823C108.794 28.4823 109.187 28.5126 109.53 28.5731C109.893 28.6336 110.196 28.7546 110.438 28.9361C110.68 29.1176 110.861 29.3697 110.982 29.6924C111.124 29.995 111.194 30.3983 111.194 30.9025V40.0994C111.194 41.1078 110.771 41.8641 109.924 42.3683C109.218 42.812 108.371 43.1448 107.382 43.3667C106.414 43.6087 105.355 43.7297 104.206 43.7297C103.117 43.7297 102.108 43.6087 101.181 43.3667C100.273 43.1247 99.4864 42.7515 98.8209 42.2473C98.1553 41.7431 97.641 41.0977 97.278 40.3111C96.915 39.5044 96.7334 38.5363 96.7334 37.4069V28.7546ZM126.745 38.859C126.745 40.3918 126.17 41.5918 125.021 42.4591C123.871 43.3263 122.177 43.76 119.938 43.76C119.091 43.76 118.305 43.6995 117.579 43.5784C116.852 43.4574 116.227 43.2759 115.703 43.0339C115.199 42.7717 114.795 42.449 114.493 42.0658C114.21 41.6826 114.069 41.2288 114.069 40.7044C114.069 40.2204 114.17 39.817 114.372 39.4943C114.573 39.1515 114.815 38.8691 115.098 38.6472C115.683 38.9699 116.348 39.2624 117.094 39.5246C117.861 39.7666 118.738 39.8876 119.726 39.8876C120.352 39.8876 120.826 39.7969 121.148 39.6153C121.491 39.4338 121.663 39.1918 121.663 38.8893C121.663 38.6069 121.542 38.3851 121.3 38.2237C121.058 38.0624 120.654 37.9313 120.09 37.8304L119.182 37.6489C117.427 37.306 116.116 36.7716 115.249 36.0455C114.402 35.2993 113.978 34.2404 113.978 32.869C113.978 32.1227 114.14 31.4471 114.462 30.842C114.785 30.237 115.239 29.7328 115.824 29.3294C116.409 28.926 117.105 28.6134 117.911 28.3916C118.738 28.1697 119.646 28.0588 120.634 28.0588C121.38 28.0588 122.076 28.1193 122.721 28.2403C123.387 28.3411 123.962 28.5025 124.446 28.7243C124.93 28.9462 125.313 29.2386 125.596 29.6017C125.878 29.9445 126.019 30.358 126.019 30.842C126.019 31.3059 125.928 31.7093 125.747 32.0521C125.585 32.3748 125.374 32.6471 125.111 32.869C124.95 32.7681 124.708 32.6673 124.385 32.5664C124.063 32.4454 123.71 32.3446 123.327 32.2639C122.943 32.1631 122.55 32.0824 122.147 32.0219C121.763 31.9614 121.411 31.9311 121.088 31.9311C120.422 31.9311 119.908 32.0118 119.545 32.1732C119.182 32.3143 119 32.5463 119 32.869C119 33.0908 119.101 33.2723 119.303 33.4135C119.505 33.5547 119.888 33.6858 120.453 33.8068L121.39 34.0186C123.327 34.4623 124.698 35.0774 125.505 35.864C126.332 36.6304 126.745 37.6287 126.745 38.859Z" fill="#E4E4E4"/>
</svg>
