<svg width="15" height="14" viewBox="0 0 15 14" fill="none" xmlns="http://www.w3.org/2000/svg">
<path d="M10.0026 5.08018L11.3443 6.41602L5.75014 6.41602C5.59543 6.41602 5.44706 6.47747 5.33766 6.58687C5.22827 6.69627 5.16681 6.84464 5.16681 6.99935C5.16681 7.15406 5.22827 7.30243 5.33766 7.41183C5.44706 7.52122 5.59543 7.58268 5.75014 7.58268L11.3443 7.58268L10.0026 8.91852C9.94797 8.97274 9.90457 9.03726 9.87496 9.10835C9.84534 9.17943 9.83009 9.25568 9.83009 9.33268C9.83009 9.40969 9.84534 9.48594 9.87496 9.55702C9.90457 9.6281 9.94797 9.69262 10.0026 9.74685C10.0569 9.80152 10.1214 9.84492 10.1925 9.87454C10.2636 9.90415 10.3398 9.9194 10.4168 9.9194C10.4938 9.9194 10.5701 9.90415 10.6411 9.87454C10.7122 9.84492 10.7767 9.80152 10.831 9.74685L13.1643 7.41352C13.2174 7.35804 13.259 7.29262 13.2868 7.22102C13.3452 7.079 13.3452 6.9197 13.2868 6.77768C13.259 6.70608 13.2174 6.64066 13.1643 6.58518L10.831 4.25185C10.7766 4.19746 10.712 4.15432 10.641 4.12488C10.5699 4.09545 10.4937 4.0803 10.4168 4.0803C10.3399 4.0803 10.2637 4.09545 10.1927 4.12488C10.1216 4.15432 10.057 4.19746 10.0026 4.25185C9.94825 4.30624 9.90511 4.37081 9.87567 4.44187C9.84624 4.51293 9.83109 4.5891 9.83109 4.66602C9.83109 4.74293 9.84624 4.8191 9.87567 4.89016C9.90511 4.96122 9.94825 5.02579 10.0026 5.08018ZM6.33348 12.2493C6.33348 12.0946 6.27202 11.9463 6.16262 11.8369C6.05322 11.7275 5.90485 11.666 5.75014 11.666L3.41681 11.666C3.2621 11.666 3.11373 11.6046 3.00433 11.4952C2.89493 11.3858 2.83347 11.2374 2.83347 11.0827L2.83348 2.91602C2.83348 2.76131 2.89493 2.61293 3.00433 2.50354C3.11373 2.39414 3.2621 2.33268 3.41681 2.33268L5.75014 2.33268C5.90485 2.33268 6.05322 2.27122 6.16262 2.16183C6.27202 2.05243 6.33348 1.90406 6.33348 1.74935C6.33348 1.59464 6.27202 1.44627 6.16262 1.33687C6.05323 1.22747 5.90485 1.16602 5.75014 1.16602L3.41681 1.16602C2.95268 1.16602 2.50756 1.35039 2.17937 1.67858C1.85118 2.00677 1.66681 2.45189 1.66681 2.91602L1.66681 11.0827C1.66681 11.5468 1.85118 11.9919 2.17937 12.3201C2.50756 12.6483 2.95268 12.8327 3.41681 12.8327L5.75014 12.8327C5.90485 12.8327 6.05322 12.7712 6.16262 12.6618C6.27202 12.5524 6.33348 12.4041 6.33348 12.2493Z" fill="white"/>
</svg>
