<svg width="14" height="15" viewBox="0 0 14 15" fill="none" xmlns="http://www.w3.org/2000/svg">
<path d="M11.76 3.18898C11.1407 2.56948 10.3196 2.19283 9.44605 2.12753C8.57251 2.06223 7.70454 2.31261 7 2.83314C6.2578 2.2811 5.33399 2.03077 4.41462 2.13258C3.49524 2.23439 2.64859 2.68076 2.04515 3.38182C1.44171 4.08287 1.12631 4.98653 1.16247 5.91082C1.19862 6.83511 1.58364 7.71137 2.24 8.36314L6.58583 12.709C6.64006 12.7637 6.70458 12.807 6.77566 12.8367C6.84675 12.8663 6.92299 12.8815 7 12.8815C7.07701 12.8815 7.15325 12.8663 7.22433 12.8367C7.29542 12.807 7.35994 12.7637 7.41417 12.709L11.76 8.36314C12.0999 8.02348 12.3695 7.62018 12.5535 7.17627C12.7374 6.73237 12.8321 6.25657 12.8321 5.77606C12.8321 5.29555 12.7374 4.81975 12.5535 4.37585C12.3695 3.93194 12.0999 3.52864 11.76 3.18898V3.18898ZM10.9375 7.54064L7 11.4723L3.0625 7.54064C2.71552 7.19222 2.47915 6.74909 2.38305 6.26684C2.28695 5.7846 2.33539 5.28471 2.5223 4.82989C2.70922 4.37507 3.02627 3.98557 3.4337 3.71026C3.84113 3.43494 4.32078 3.28607 4.8125 3.28231C5.4694 3.28392 6.09881 3.54617 6.5625 4.01148C6.61673 4.06615 6.68124 4.10955 6.75233 4.13916C6.82341 4.16878 6.89966 4.18403 6.97667 4.18403C7.05367 4.18403 7.12992 4.16878 7.201 4.13916C7.27209 4.10955 7.3366 4.06615 7.39083 4.01148C7.86819 3.59782 8.48487 3.38098 9.11606 3.40482C9.74726 3.42867 10.3458 3.69143 10.7906 4.13992C11.2354 4.58841 11.4932 5.18913 11.5118 5.8205C11.5304 6.45188 11.3084 7.06674 10.8908 7.54064H10.9375Z" fill="currentColor"/>
</svg>
