<svg width="56" height="57" viewBox="0 0 56 57" fill="none" xmlns="http://www.w3.org/2000/svg">
<path d="M28 30.8337C27.2896 30.8254 26.5937 31.0349 26.006 31.434C25.4183 31.8332 24.967 32.4028 24.7128 33.0662C24.4586 33.7296 24.4138 34.455 24.5843 35.1446C24.7549 35.8343 25.1326 36.4552 25.6667 36.9237V40.167C25.6667 40.7858 25.9125 41.3793 26.3501 41.8169C26.7877 42.2545 27.3812 42.5003 28 42.5003C28.6188 42.5003 29.2123 42.2545 29.6499 41.8169C30.0875 41.3793 30.3333 40.7858 30.3333 40.167V36.9237C30.8674 36.4552 31.2451 35.8343 31.4157 35.1446C31.5862 34.455 31.5413 33.7296 31.2872 33.0662C31.033 32.4028 30.5817 31.8332 29.994 31.434C29.4063 31.0349 28.7104 30.8254 28 30.8337ZM39.6667 21.5003V16.8337C39.6667 13.7395 38.4375 10.772 36.2496 8.58408C34.0617 6.39616 31.0942 5.16699 28 5.16699C24.9058 5.16699 21.9383 6.39616 19.7504 8.58408C17.5625 10.772 16.3333 13.7395 16.3333 16.8337V21.5003C14.4768 21.5003 12.6963 22.2378 11.3836 23.5506C10.0708 24.8633 9.33333 26.6438 9.33333 28.5003V44.8337C9.33333 46.6902 10.0708 48.4706 11.3836 49.7834C12.6963 51.0962 14.4768 51.8337 16.3333 51.8337H39.6667C41.5232 51.8337 43.3037 51.0962 44.6164 49.7834C45.9292 48.4706 46.6667 46.6902 46.6667 44.8337V28.5003C46.6667 26.6438 45.9292 24.8633 44.6164 23.5506C43.3037 22.2378 41.5232 21.5003 39.6667 21.5003ZM21 16.8337C21 14.9771 21.7375 13.1967 23.0502 11.8839C24.363 10.5712 26.1435 9.83366 28 9.83366C29.8565 9.83366 31.637 10.5712 32.9497 11.8839C34.2625 13.1967 35 14.9771 35 16.8337V21.5003H21V16.8337ZM42 44.8337C42 45.4525 41.7542 46.046 41.3166 46.4836C40.879 46.9212 40.2855 47.167 39.6667 47.167H16.3333C15.7145 47.167 15.121 46.9212 14.6834 46.4836C14.2458 46.046 14 45.4525 14 44.8337V28.5003C14 27.8815 14.2458 27.288 14.6834 26.8504C15.121 26.4128 15.7145 26.167 16.3333 26.167H39.6667C40.2855 26.167 40.879 26.4128 41.3166 26.8504C41.7542 27.288 42 27.8815 42 28.5003V44.8337Z" fill="#EB003B"/>
</svg>
