<svg width="24" height="24" viewBox="0 0 24 24" fill="none" xmlns="http://www.w3.org/2000/svg">
<path d="M13.314 12.071L8.364 7.12098C8.18184 6.93238 8.08105 6.67978 8.08333 6.41758C8.08561 6.15538 8.19078 5.90457 8.37618 5.71916C8.56159 5.53375 8.8124 5.42859 9.0746 5.42631C9.3368 5.42403 9.5894 5.52482 9.778 5.70698L15.435 11.364C15.6225 11.5515 15.7278 11.8058 15.7278 12.071C15.7278 12.3361 15.6225 12.5905 15.435 12.778L9.778 18.435C9.5894 18.6171 9.3368 18.7179 9.0746 18.7157C8.8124 18.7134 8.56159 18.6082 8.37618 18.4228C8.19078 18.2374 8.08561 17.9866 8.08333 17.7244C8.08105 17.4622 8.18184 17.2096 8.364 17.021L13.314 12.071Z" fill="#727272"/>
</svg>
