<svg viewBox="0 0 26 22" fill="none" xmlns="http://www.w3.org/2000/svg">
<rect width="26" height="22" fill="#F5F5F5"/>
<g id="IOS_&#235;&#167;&#136;&#236;&#157;&#180;&#237;&#142;&#152;&#236;&#157;&#180;&#236;&#167;&#128;_13_&#236;&#157;&#180;&#235;&#178;&#164;&#237;&#138;&#184;&#236;&#149;&#140;&#235;&#166;&#188;" clip-path="url(#clip0_322_352)">
<rect width="402" height="874" transform="translate(-16 -214)" fill="white"/>
<g id="&#236;&#149;&#140;&#235;&#166;&#188;">
<g id="Main Notice">
<g id="Frame 3465348">
<g id="&#236;&#160;&#156;&#235;&#170;&#169;">
<path id="Vector" d="M13.5975 0.113163C13.3858 0.0164518 13.1536 -0.0192139 12.9245 0.00980576C12.6955 0.0388255 12.4778 0.131491 12.2938 0.278345L6.06216 5.48159H1.30369C0.95793 5.48159 0.626332 5.62662 0.381842 5.88476C0.137353 6.14291 0 6.49303 0 6.85811V15.1172C0 15.4823 0.137353 15.8324 0.381842 16.0906C0.626332 16.3487 0.95793 16.4937 1.30369 16.4937H6.06216L12.2286 21.697C12.458 21.8913 12.7428 21.998 13.0369 21.9998C13.2316 22.0032 13.4242 21.9559 13.5975 21.8622C13.8193 21.7506 14.0068 21.5751 14.1383 21.3559C14.2698 21.1367 14.3399 20.8828 14.3406 20.6233V1.35203C14.3399 1.09258 14.2698 0.838611 14.1383 0.619418C14.0068 0.400225 13.8193 0.224728 13.5975 0.113163ZM11.7332 17.7601L7.32674 14.0435C7.09737 13.8492 6.81252 13.7425 6.51845 13.7407H2.60738V8.23463H6.51845C6.81252 8.23283 7.09737 8.12611 7.32674 7.9318L11.7332 4.21519V17.7601ZM17.1305 0.0993984C16.9593 0.074091 16.785 0.0846363 16.6177 0.130432C16.4504 0.176227 16.2932 0.256377 16.1552 0.366303C16.0172 0.47623 15.901 0.613781 15.8134 0.771103C15.7257 0.928426 15.6683 1.10244 15.6443 1.28321C15.6203 1.46397 15.6303 1.64795 15.6737 1.82465C15.7171 2.00134 15.793 2.16728 15.8971 2.313C16.1073 2.60728 16.4197 2.80133 16.7655 2.85244C18.6118 3.15286 20.2953 4.14103 21.5115 5.63822C22.7277 7.13541 23.3962 9.04274 23.3962 11.0152C23.3962 12.9877 22.7277 14.895 21.5115 16.3922C20.2953 17.8894 18.6118 18.8775 16.7655 19.178C16.4197 19.2035 16.0977 19.3731 15.8703 19.6493C15.643 19.9255 15.5288 20.2858 15.553 20.6508C15.5772 21.0159 15.7378 21.3559 15.9994 21.596C16.261 21.836 16.6022 21.9566 16.948 21.931H17.1305C19.5982 21.5368 21.8502 20.2214 23.4776 18.2236C25.105 16.2257 26 13.6779 26 11.0427C26 8.40756 25.105 5.85975 23.4776 3.8619C21.8502 1.86405 19.5982 0.548622 17.1305 0.154459V0.0993984ZM16.5308 13.5618C16.185 13.6202 15.8754 13.8212 15.67 14.1207C15.4647 14.4201 15.3804 14.7934 15.4357 15.1585C15.491 15.5236 15.6814 15.8505 15.965 16.0674C16.2486 16.2842 16.6022 16.3732 16.948 16.3148C17.0894 16.3131 17.2299 16.2899 17.3652 16.246C18.3808 15.8657 19.2599 15.1626 19.8816 14.2334C20.5033 13.3041 20.8371 12.1943 20.8371 11.0565C20.8371 9.91874 20.5033 8.80892 19.8816 7.87964C19.2599 6.95036 18.3808 6.24726 17.3652 5.86702C17.0367 5.75019 16.6777 5.77593 16.3672 5.93856C16.0567 6.10119 15.8201 6.3874 15.7095 6.73422C15.5988 7.08105 15.6232 7.46007 15.7772 7.78792C15.9313 8.11577 16.2023 8.36558 16.5308 8.4824C17.0255 8.68053 17.4514 9.03287 17.752 9.49264C18.0525 9.95241 18.2135 10.4978 18.2135 11.0565C18.2135 11.6151 18.0525 12.1606 17.752 12.6203C17.4514 13.0801 17.0255 13.4325 16.5308 13.6306V13.5618Z" fill="currentColor"/>
</g>
</g>
</g>
</g>
</g>
<defs>
<clipPath id="clip0_322_352">
<rect width="402" height="874" fill="currentColor" transform="translate(-16 -214)"/>
</clipPath>
</defs>
</svg>
