<svg width="20" height="24" viewBox="0 0 20 24" fill="none" xmlns="http://www.w3.org/2000/svg">
<path d="M7 21.5C8.5 22.8333 11.5 22.8333 13 21.5" stroke="#0B0B0B" stroke-width="2" stroke-linecap="round" stroke-linejoin="round"/>
<path fill-rule="evenodd" clip-rule="evenodd" d="M10.9987 1.55208C10.9996 1.53483 11 1.51747 11 1.5C11 0.947715 10.5523 0.5 10 0.5C9.44771 0.5 9 0.947715 9 1.5C9 1.51748 9.00045 1.53486 9.00134 1.55212C5.65368 2.03463 2.50369 5.79948 3.00005 10C3.25713 11.2854 2.44768 11.9664 1.60517 12.6752C0.809054 13.345 -0.0165819 14.0396 0.000253188 15.2925C0.000253188 17.0484 1.00001 18 2.4683 18.4719C2.4683 18.4719 5.15739 19.5 10.0001 19.5C14.8429 19.5 17.532 18.4719 17.532 18.4719C19.0002 18 20.0002 17 20 15.2925C19.9998 14.0288 19.1747 13.3339 18.383 12.6672C17.5442 11.9609 16.743 11.2861 17.0002 10C17.4966 5.79938 14.3464 2.03444 10.9987 1.55208ZM4.42771 12.588C4.93433 11.787 5.17843 10.817 4.97921 9.70278C4.80686 8.0846 5.3713 6.5193 6.35016 5.33963C7.36228 4.11987 8.6503 3.5 9.71912 3.5H10.2811C11.35 3.5 12.638 4.11987 13.6501 5.33963C14.6289 6.51928 15.1934 8.08455 15.0211 9.7027C14.8228 10.8108 15.0604 11.7779 15.5647 12.5801C16.0023 13.2762 16.6175 13.7948 16.9944 14.1125L17.0229 14.1365C17.97 14.9354 18 15.0596 18 15.2927C18.0001 15.7288 17.8834 15.9409 17.7775 16.0684C17.6501 16.222 17.3987 16.414 16.92 16.5679L16.8684 16.5844L16.8252 16.6009L16.822 16.6021C16.8132 16.6053 16.7943 16.612 16.7653 16.6218C16.7073 16.6415 16.6091 16.6734 16.4719 16.7138C16.1974 16.7945 15.7666 16.9088 15.1876 17.0252C14.0301 17.2581 12.2794 17.5 10.0001 17.5C7.72086 17.5 5.97019 17.2581 4.81263 17.0252C4.23369 16.9088 3.80287 16.7945 3.52836 16.7138C3.39111 16.6734 3.29297 16.6415 3.23497 16.6218C3.20598 16.612 3.18702 16.6053 3.17823 16.6021L3.17509 16.601L3.13188 16.5844L3.08028 16.5678C2.57899 16.4067 2.33382 16.2188 2.21549 16.0778C2.12294 15.9676 2.00025 15.7637 2.00025 15.2925V15.279L2.00007 15.2656C1.9974 15.0665 2.00237 14.9559 2.96343 14.1461L2.9923 14.1218L2.99231 14.1218C3.3711 13.8028 3.98794 13.2834 4.42771 12.588Z" fill="#0B0B0B"/>
<circle cx="16" cy="4.5" r="4" fill="#EB003B"/>
</svg>
