<svg width="17" height="17" viewBox="0 0 17 17" fill="none" xmlns="http://www.w3.org/2000/svg">
<g id="User Interface / Edit">
<path id="Vector" d="M3.83325 12.5001H6.65992C6.74766 12.5006 6.83463 12.4838 6.91586 12.4506C6.99708 12.4175 7.07096 12.3686 7.13325 12.3068L11.7466 7.68679L13.6399 5.83346C13.7024 5.77148 13.752 5.69775 13.7858 5.61651C13.8197 5.53527 13.8371 5.44813 13.8371 5.36012C13.8371 5.27211 13.8197 5.18498 13.7858 5.10374C13.752 5.0225 13.7024 4.94876 13.6399 4.88679L10.8133 2.02679C10.7513 1.9643 10.6775 1.91471 10.5963 1.88086C10.5151 1.84702 10.4279 1.82959 10.3399 1.82959C10.2519 1.82959 10.1648 1.84702 10.0835 1.88086C10.0023 1.91471 9.92856 1.9643 9.86659 2.02679L7.98659 3.91346L3.35992 8.53346C3.29813 8.59575 3.24925 8.66963 3.21607 8.75085C3.18289 8.83208 3.16608 8.91905 3.16659 9.00679V11.8335C3.16659 12.0103 3.23682 12.1798 3.36185 12.3049C3.48687 12.4299 3.65644 12.5001 3.83325 12.5001ZM10.3399 3.44012L12.2266 5.32679L11.2799 6.27346L9.39325 4.38679L10.3399 3.44012ZM4.49992 9.28012L8.45325 5.32679L10.3399 7.21346L6.38659 11.1668H4.49992V9.28012ZM14.4999 13.8335H2.49992C2.32311 13.8335 2.15354 13.9037 2.02851 14.0287C1.90349 14.1537 1.83325 14.3233 1.83325 14.5001C1.83325 14.6769 1.90349 14.8465 2.02851 14.9715C2.15354 15.0966 2.32311 15.1668 2.49992 15.1668H14.4999C14.6767 15.1668 14.8463 15.0966 14.9713 14.9715C15.0963 14.8465 15.1666 14.6769 15.1666 14.5001C15.1666 14.3233 15.0963 14.1537 14.9713 14.0287C14.8463 13.9037 14.6767 13.8335 14.4999 13.8335Z" fill="white"/>
</g>
</svg>
