<svg width="21" height="21" viewBox="0 0 21 21" fill="none" xmlns="http://www.w3.org/2000/svg">
<rect x="0.714844" y="0.871338" width="20.0429" height="20.0429" rx="2.94748" fill="#C6C6C6"/>
<path d="M8.96701 9.71377H9.55651C9.71285 9.71377 9.86279 9.65166 9.97334 9.54111C10.0839 9.43056 10.146 9.28062 10.146 9.12427C10.146 8.96793 10.0839 8.81799 9.97334 8.70744C9.86279 8.59688 9.71285 8.53478 9.55651 8.53478H8.96701C8.81067 8.53478 8.66073 8.59688 8.55017 8.70744C8.43962 8.81799 8.37751 8.96793 8.37751 9.12427C8.37751 9.28062 8.43962 9.43056 8.55017 9.54111C8.66073 9.65166 8.81067 9.71377 8.96701 9.71377V9.71377ZM8.96701 10.8928C8.81067 10.8928 8.66073 10.9549 8.55017 11.0654C8.43962 11.176 8.37751 11.3259 8.37751 11.4823C8.37751 11.6386 8.43962 11.7885 8.55017 11.8991C8.66073 12.0096 8.81067 12.0718 8.96701 12.0718H12.504C12.6603 12.0718 12.8103 12.0096 12.9208 11.8991C13.0314 11.7885 13.0935 11.6386 13.0935 11.4823C13.0935 11.3259 13.0314 11.176 12.9208 11.0654C12.8103 10.9549 12.6603 10.8928 12.504 10.8928H8.96701ZM15.4515 9.0889C15.4453 9.03475 15.4335 8.9814 15.4161 8.92974V8.87668C15.3878 8.81607 15.3499 8.76036 15.3041 8.71163V8.71163L11.7671 5.17465C11.7184 5.1288 11.6627 5.09099 11.6021 5.06265C11.5845 5.06015 11.5666 5.06015 11.549 5.06265C11.4891 5.0283 11.423 5.00626 11.3545 4.9978H7.78802C7.31899 4.9978 6.86916 5.18413 6.53751 5.51578C6.20585 5.84744 6.01953 6.29726 6.01953 6.76629V15.0192C6.01953 15.4883 6.20585 15.9381 6.53751 16.2697C6.86916 16.6014 7.31899 16.7877 7.78802 16.7877H13.683C14.152 16.7877 14.6018 16.6014 14.9335 16.2697C15.2651 15.9381 15.4515 15.4883 15.4515 15.0192V9.12427C15.4515 9.12427 15.4515 9.12427 15.4515 9.0889ZM11.9145 7.00798L13.4413 8.53478H12.504C12.3476 8.53478 12.1977 8.47267 12.0871 8.36212C11.9766 8.25157 11.9145 8.10163 11.9145 7.94528V7.00798ZM14.2725 15.0192C14.2725 15.1756 14.2104 15.3255 14.0998 15.4361C13.9893 15.5466 13.8393 15.6087 13.683 15.6087H7.78802C7.63167 15.6087 7.48173 15.5466 7.37118 15.4361C7.26063 15.3255 7.19852 15.1756 7.19852 15.0192V6.76629C7.19852 6.60995 7.26063 6.46001 7.37118 6.34945C7.48173 6.2389 7.63167 6.17679 7.78802 6.17679H10.7355V7.94528C10.7355 8.41431 10.9218 8.86414 11.2535 9.19579C11.5851 9.52745 12.035 9.71377 12.504 9.71377H14.2725V15.0192ZM12.504 13.2507H8.96701C8.81067 13.2507 8.66073 13.3129 8.55017 13.4234C8.43962 13.534 8.37751 13.6839 8.37751 13.8402C8.37751 13.9966 8.43962 14.1465 8.55017 14.2571C8.66073 14.3676 8.81067 14.4297 8.96701 14.4297H12.504C12.6603 14.4297 12.8103 14.3676 12.9208 14.2571C13.0314 14.1465 13.0935 13.9966 13.0935 13.8402C13.0935 13.6839 13.0314 13.534 12.9208 13.4234C12.8103 13.3129 12.6603 13.2507 12.504 13.2507Z" fill="white"/>
</svg>
