<svg width="16" height="16" viewBox="0 0 16 16" fill="none" xmlns="http://www.w3.org/2000/svg">
<g id="exclamation-triangle">
<path id="Vector" d="M8.0003 10.6662C7.86845 10.6662 7.73956 10.7053 7.62992 10.7786C7.52029 10.8518 7.43484 10.9559 7.38438 11.0777C7.33393 11.1996 7.32072 11.3336 7.34645 11.4629C7.37217 11.5922 7.43566 11.711 7.5289 11.8043C7.62213 11.8975 7.74092 11.961 7.87024 11.9867C7.99956 12.0124 8.13361 11.9992 8.25543 11.9488C8.37724 11.8983 8.48136 11.8129 8.55462 11.7032C8.62787 11.5936 8.66697 11.4647 8.66697 11.3329C8.66697 11.1561 8.59673 10.9865 8.47171 10.8615C8.34668 10.7364 8.17711 10.6662 8.0003 10.6662ZM15.1136 11.6462L9.74697 2.31286C9.57351 2.00187 9.32016 1.74284 9.0131 1.56251C8.70604 1.38218 8.3564 1.28711 8.0003 1.28711C7.64421 1.28711 7.29457 1.38218 6.98751 1.56251C6.68045 1.74284 6.4271 2.00187 6.25364 2.31286L0.920304 11.6462C0.740834 11.9489 0.644399 12.2935 0.640734 12.6454C0.637068 12.9973 0.726303 13.3439 0.899428 13.6502C1.07255 13.9566 1.32344 14.2118 1.62676 14.3902C1.93008 14.5686 2.27509 14.6638 2.62697 14.6662H13.3736C13.7283 14.6697 14.0776 14.5788 14.3856 14.4028C14.6936 14.2268 14.9492 13.9721 15.1263 13.6647C15.3034 13.3574 15.3955 13.0085 15.3933 12.6538C15.3911 12.299 15.2946 11.9513 15.1136 11.6462ZM13.9603 12.9795C13.9019 13.0835 13.8166 13.1699 13.7134 13.2297C13.6102 13.2895 13.4929 13.3205 13.3736 13.3195H2.62697C2.50771 13.3205 2.39037 13.2895 2.28718 13.2297C2.18399 13.1699 2.09874 13.0835 2.0403 12.9795C1.98179 12.8782 1.95099 12.7632 1.95099 12.6462C1.95099 12.5292 1.98179 12.4142 2.0403 12.3129L7.37364 2.97953C7.42958 2.87033 7.51458 2.77869 7.61927 2.71469C7.72395 2.6507 7.84427 2.61684 7.96697 2.61684C8.08967 2.61684 8.20999 2.6507 8.31467 2.71469C8.41936 2.77869 8.50436 2.87033 8.5603 2.97953L13.927 12.3129C13.9931 12.4128 14.0311 12.5286 14.037 12.6483C14.0428 12.768 14.0164 12.887 13.9603 12.9929V12.9795ZM8.0003 5.33286C7.82349 5.33286 7.65392 5.4031 7.5289 5.52813C7.40387 5.65315 7.33364 5.82272 7.33364 5.99953V8.6662C7.33364 8.84301 7.40387 9.01258 7.5289 9.1376C7.65392 9.26263 7.82349 9.33286 8.0003 9.33286C8.17711 9.33286 8.34668 9.26263 8.47171 9.1376C8.59673 9.01258 8.66697 8.84301 8.66697 8.6662V5.99953C8.66697 5.82272 8.59673 5.65315 8.47171 5.52813C8.34668 5.4031 8.17711 5.33286 8.0003 5.33286Z" fill="black"/>
</g>
</svg>
