<svg width="30" height="30" viewBox="0 0 30 30" fill="none" xmlns="http://www.w3.org/2000/svg">
<path d="M20 2.5H10C9.00545 2.5 8.05162 2.89509 7.34836 3.59835C6.6451 4.30161 6.25001 5.25544 6.25001 6.25V26.25C6.24914 26.4703 6.30648 26.6868 6.41623 26.8778C6.52599 27.0688 6.68425 27.2274 6.87501 27.3375C7.06503 27.4472 7.28059 27.505 7.50001 27.505C7.71943 27.505 7.93499 27.4472 8.12501 27.3375L15 23.3625L21.875 27.3375C22.0655 27.4455 22.281 27.5015 22.5 27.5C22.719 27.5015 22.9345 27.4455 23.125 27.3375C23.3158 27.2274 23.474 27.0688 23.5838 26.8778C23.6935 26.6868 23.7509 26.4703 23.75 26.25V6.25C23.75 5.25544 23.3549 4.30161 22.6517 3.59835C21.9484 2.89509 20.9946 2.5 20 2.5ZM21.25 24.0875L15.625 20.8375C15.435 20.7278 15.2194 20.67 15 20.67C14.7806 20.67 14.565 20.7278 14.375 20.8375L8.75001 24.0875V6.25C8.75001 5.91848 8.88171 5.60054 9.11613 5.36612C9.35055 5.1317 9.66849 5 10 5H20C20.3315 5 20.6495 5.1317 20.8839 5.36612C21.1183 5.60054 21.25 5.91848 21.25 6.25V24.0875Z" fill="currentColor"/>
</svg>
