<svg width="24" height="24" viewBox="0 0 24 24" fill="none" xmlns="http://www.w3.org/2000/svg">
<path d="M21.7099 20.2855L17.9999 16.6055C19.44 14.8099 20.1374 12.5308 19.9487 10.2368C19.76 7.94281 18.6996 5.80829 16.9854 4.27215C15.2713 2.73602 13.0337 1.91502 10.7328 1.97798C8.43194 2.04094 6.24263 2.98307 4.61505 4.61065C2.98747 6.23823 2.04534 8.42755 1.98237 10.7284C1.91941 13.0293 2.74041 15.2669 4.27655 16.981C5.81269 18.6952 7.94721 19.7556 10.2412 19.9443C12.5352 20.133 14.8143 19.4356 16.6099 17.9955L20.2899 21.6755C20.3829 21.7692 20.4935 21.8436 20.6153 21.8944C20.7372 21.9452 20.8679 21.9713 20.9999 21.9713C21.1319 21.9713 21.2626 21.9452 21.3845 21.8944C21.5063 21.8436 21.6169 21.7692 21.7099 21.6755C21.8901 21.489 21.9909 21.2398 21.9909 20.9805C21.9909 20.7212 21.8901 20.472 21.7099 20.2855ZM10.9999 17.9955C9.61544 17.9955 8.26206 17.585 7.11091 16.8158C5.95977 16.0466 5.06256 14.9534 4.53275 13.6743C4.00293 12.3952 3.86431 10.9877 4.13441 9.62988C4.4045 8.27201 5.07119 7.02473 6.05016 6.04576C7.02912 5.06679 8.27641 4.40011 9.63427 4.13001C10.9921 3.85992 12.3996 3.99854 13.6787 4.52835C14.9578 5.05817 16.051 5.95537 16.8202 7.10652C17.5894 8.25766 17.9999 9.61104 17.9999 10.9955C17.9999 12.852 17.2624 14.6325 15.9497 15.9453C14.6369 17.258 12.8564 17.9955 10.9999 17.9955Z" fill="currentColor"/>
</svg>
