<svg width="36" height="36" viewBox="0 0 36 36" fill="none" xmlns="http://www.w3.org/2000/svg">
<circle cx="17.621" cy="17.621" r="17.621" fill="currentColor"/>
<path d="M25.4371 15.6912L13.7704 10.8746C13.329 10.6919 12.8444 10.6395 12.3742 10.7237C11.9039 10.8078 11.4676 11.0249 11.1169 11.3493C10.7662 11.6737 10.5157 12.0918 10.3953 12.5541C10.2748 13.0164 10.2893 13.5036 10.4371 13.9579L11.7204 17.9996L10.4038 22.0412C10.252 22.4973 10.2349 22.9876 10.3546 23.4531C10.4744 23.9187 10.7258 24.3399 11.0788 24.6662C11.5326 25.0871 12.1265 25.3247 12.7454 25.3329C13.0744 25.3327 13.4 25.2675 13.7038 25.1412L25.4121 20.3246C25.8681 20.1349 26.2577 19.8145 26.5317 19.4037C26.8058 18.9929 26.9521 18.5101 26.9521 18.0162C26.9521 17.5224 26.8058 17.0396 26.5317 16.6288C26.2577 16.218 25.8681 15.8975 25.4121 15.7079L25.4371 15.6912ZM13.0954 23.5829C12.9484 23.6435 12.7871 23.6608 12.6306 23.6328C12.4741 23.6047 12.3289 23.5325 12.2121 23.4246C12.1021 23.3194 12.0229 23.1862 11.9833 23.0393C11.9436 22.8924 11.9449 22.7374 11.9871 22.5912L13.2038 18.8329H24.6454L13.0954 23.5829ZM13.2038 17.1662L11.9621 13.4412C11.9199 13.295 11.9186 13.1401 11.9583 12.9932C11.9979 12.8463 12.0771 12.713 12.1871 12.6079C12.2655 12.5256 12.3599 12.4603 12.4645 12.4158C12.5692 12.3714 12.6818 12.3489 12.7954 12.3496C12.9071 12.3498 13.0176 12.3724 13.1204 12.4162L24.6454 17.1662H13.2038Z" fill="white"/>
</svg>
