<svg width="16" height="16" viewBox="0 0 16 16" fill="none" xmlns="http://www.w3.org/2000/svg">
<path id="Vector" d="M14.8892 13.7531C15.3902 13.0814 15.7341 12.3058 15.8954 11.4834C16.0566 10.661 16.0312 9.81296 15.8209 9.00174C15.6107 8.19053 15.2209 7.43688 14.6805 6.79643C14.14 6.15597 13.4627 5.64506 12.6984 5.30138C12.5319 4.34355 12.1493 3.43626 11.5797 2.64845C11.01 1.86065 10.2683 1.21306 9.41089 0.754895C8.55347 0.296726 7.6029 0.0400327 6.63141 0.00431819C5.65993 -0.0313963 4.69308 0.154808 3.80433 0.548783C2.91559 0.942757 2.12833 1.53414 1.50238 2.27799C0.876434 3.02184 0.428259 3.89858 0.191914 4.84161C-0.0444319 5.78464 -0.0627301 6.76914 0.13841 7.7203C0.33955 8.67146 0.754835 9.56425 1.35271 10.3309L0.241331 11.4343C0.130387 11.5467 0.0552315 11.6895 0.0253489 11.8446C-0.00453379 11.9998 0.012195 12.1602 0.0734245 12.3059C0.133407 12.4519 0.235269 12.5769 0.366172 12.6651C0.497075 12.7533 0.651162 12.8008 0.809015 12.8016H5.35848C5.81154 13.7568 6.52586 14.5642 7.41873 15.1302C8.3116 15.6962 9.34651 15.9978 10.4037 16H15.201C15.3588 15.9992 15.5129 15.9517 15.6438 15.8635C15.7747 15.7753 15.8766 15.6503 15.9366 15.5042C15.9978 15.3586 16.0145 15.1981 15.9847 15.043C15.9548 14.8879 15.8796 14.7451 15.7687 14.6327L14.8892 13.7531ZM4.80679 10.4028C4.80789 10.6706 4.82927 10.9379 4.87075 11.2024H2.73594L3.01578 10.9306C3.09073 10.8562 3.15021 10.7678 3.1908 10.6703C3.23139 10.5729 3.25229 10.4684 3.25229 10.3628C3.25229 10.2573 3.23139 10.1528 3.1908 10.0553C3.15021 9.95789 3.09073 9.86946 3.01578 9.79512C2.56768 9.35191 2.21243 8.8238 1.97081 8.24168C1.72919 7.65956 1.60604 7.0351 1.60857 6.40483C1.60857 5.13243 2.114 3.91214 3.01367 3.01242C3.91335 2.1127 5.13357 1.60724 6.4059 1.60724C7.39869 1.60128 8.36839 1.9066 9.17869 2.48029C9.98899 3.05399 10.5991 3.86721 10.9234 4.80563C10.7475 4.80563 10.5796 4.80563 10.4037 4.80563C8.91928 4.80563 7.4957 5.39533 6.44608 6.44501C5.39646 7.49469 4.80679 8.91835 4.80679 10.4028ZM13.2341 14.4008L13.2741 14.4408H10.4037C9.47885 14.4391 8.58322 14.1169 7.86934 13.5289C7.15545 12.941 6.66749 12.1237 6.48857 11.2163C6.30965 10.3089 6.45084 9.36753 6.88809 8.55256C7.32534 7.7376 8.0316 7.09944 8.88656 6.74682C9.74151 6.39419 10.6923 6.3489 11.5769 6.61866C12.4615 6.88843 13.2252 7.45656 13.7379 8.22627C14.2507 8.99598 14.4807 9.91966 14.3888 10.84C14.2969 11.7602 13.8889 12.6202 13.2341 13.2734C13.0834 13.421 12.9972 13.6222 12.9942 13.8331C12.9947 13.9389 13.0161 14.0435 13.0573 14.141C13.0984 14.2384 13.1585 14.3268 13.2341 14.4008Z" fill="#0B0B0B"/>
</svg>
