<svg width="18" height="18" viewBox="0 0 18 18" fill="none" xmlns="http://www.w3.org/2000/svg">
<path d="M10.5164 5.25H11.2664C11.4652 5.25026 11.6558 5.32936 11.7964 5.46995C11.937 5.61055 12.0161 5.80116 12.0164 6V6.75C12.0164 6.94891 12.0954 7.13968 12.2361 7.28033C12.3767 7.42098 12.5675 7.5 12.7664 7.5C12.9653 7.5 13.1561 7.42098 13.2967 7.28033C13.4374 7.13968 13.5164 6.94891 13.5164 6.75V6C13.5157 5.40346 13.2785 4.83154 12.8567 4.40973C12.4348 3.98791 11.8629 3.75065 11.2664 3.75H10.5164C10.3175 3.75 10.1267 3.82902 9.98606 3.96967C9.84541 4.11032 9.7664 4.30109 9.7664 4.5C9.7664 4.69891 9.84541 4.88968 9.98606 5.03033C10.1267 5.17098 10.3175 5.25 10.5164 5.25ZM7.5164 12H6.7664C6.56756 11.9997 6.37695 11.9206 6.23635 11.78C6.09575 11.6394 6.01665 11.4488 6.0164 11.25V10.5C6.0164 10.3011 5.93738 10.1103 5.79673 9.96967C5.65607 9.82901 5.46531 9.75 5.26639 9.75C5.06748 9.75 4.87672 9.82901 4.73606 9.96967C4.59541 10.1103 4.51639 10.3011 4.51639 10.5V11.25C4.51705 11.8465 4.75431 12.4185 5.17612 12.8403C5.59794 13.2621 6.16986 13.4993 6.7664 13.5H7.5164C7.71531 13.5 7.90607 13.421 8.04673 13.2803C8.18738 13.1397 8.2664 12.9489 8.2664 12.75C8.2664 12.5511 8.18738 12.3603 8.04673 12.2197C7.90607 12.079 7.71531 12 7.5164 12ZM15.7664 11.25C15.9653 11.25 16.1561 11.171 16.2967 11.0303C16.4374 10.8897 16.5164 10.6989 16.5164 10.5C16.5164 10.3011 16.4374 10.1103 16.2967 9.96967C16.1561 9.82901 15.9653 9.75 15.7664 9.75H13.5164V9.375C13.5164 9.17609 13.4374 8.98532 13.2967 8.84467C13.1561 8.70402 12.9653 8.625 12.7664 8.625C12.5675 8.625 12.3767 8.70402 12.2361 8.84467C12.0954 8.98532 12.0164 9.17609 12.0164 9.375V9.75H9.7664C9.56748 9.75 9.37672 9.82901 9.23606 9.96967C9.09541 10.1103 9.0164 10.3011 9.0164 10.5C9.0164 10.6989 9.09541 10.8897 9.23606 11.0303C9.37672 11.171 9.56748 11.25 9.7664 11.25H13.6546C13.4849 11.9393 13.1717 12.585 12.7354 13.145C12.5569 12.9136 12.399 12.667 12.2636 12.408C12.2187 12.3203 12.1569 12.2424 12.0819 12.1787C12.0069 12.1149 11.92 12.0665 11.8263 12.0363C11.7326 12.0061 11.6338 11.9947 11.5357 12.0027C11.4376 12.0106 11.3419 12.0378 11.2543 12.0828C11.1667 12.1277 11.0888 12.1894 11.025 12.2644C10.9612 12.3395 10.9129 12.4263 10.8827 12.52C10.8217 12.7093 10.8384 12.9151 10.9291 13.092C11.1311 13.4824 11.3721 13.8513 11.6484 14.193C11.1043 14.5881 10.4855 14.8685 9.82973 15.0172C9.63574 15.06 9.46665 15.178 9.35956 15.3454C9.25247 15.5127 9.21613 15.7156 9.25851 15.9097C9.3009 16.1038 9.41855 16.2732 9.58564 16.3806C9.75273 16.488 9.95563 16.5248 10.1498 16.4828C11.0908 16.2747 11.9735 15.8592 12.7335 15.2666C13.5 15.8595 14.3885 16.2748 15.335 16.4825C15.4312 16.5037 15.5306 16.5057 15.6276 16.4885C15.7245 16.4713 15.8172 16.4351 15.9002 16.3821C15.9832 16.3291 16.0549 16.2603 16.1113 16.1795C16.1677 16.0988 16.2077 16.0077 16.2289 15.9115C16.2501 15.8153 16.2522 15.7159 16.2349 15.619C16.2177 15.522 16.1816 15.4293 16.1286 15.3463C16.0756 15.2633 16.0067 15.1916 15.926 15.1352C15.8452 15.0788 15.7541 15.0388 15.658 15.0176C14.9978 14.8708 14.3739 14.5928 13.8234 14.2C14.5169 13.3464 14.9844 12.3318 15.1827 11.25H15.7664ZM6.78871 8.43201C6.83748 8.62446 6.96055 8.78974 7.13097 8.89161C7.30138 8.99347 7.50523 9.02362 7.69783 8.97544C7.89044 8.92727 8.05609 8.8047 8.15847 8.6346C8.26086 8.46449 8.29163 8.26074 8.24404 8.06799L6.92604 2.79565C6.83347 2.42556 6.61984 2.09703 6.31913 1.86227C6.01842 1.62751 5.64787 1.5 5.26637 1.5C4.88488 1.5 4.51433 1.62751 4.21361 1.86227C3.9129 2.09703 3.69928 2.42556 3.6067 2.79565L2.28871 8.06799C2.24113 8.26074 2.2719 8.46449 2.37428 8.6346C2.47667 8.8047 2.64232 8.92727 2.83492 8.97544C3.02752 9.02362 3.23137 8.99347 3.40179 8.89161C3.5722 8.78974 3.69527 8.62446 3.74404 8.43201L4.16449 6.75H6.36826L6.78871 8.43201ZM4.53949 5.25L5.06203 3.15967C5.07772 3.11817 5.10568 3.08243 5.14219 3.05721C5.17869 3.03199 5.222 3.01849 5.26637 3.01849C5.31074 3.01849 5.35406 3.03199 5.39056 3.05721C5.42706 3.08243 5.45502 3.11817 5.47072 3.15967L5.99326 5.25H4.53949Z" fill="currentColor"/>
</svg>
