<svg viewBox="0 0 20 21" fill="none" xmlns="http://www.w3.org/2000/svg">
<g id="Frame 1171277415">
<path id="Vector" d="M11.0567 9.72397L15.7783 5.00938C15.9194 4.86824 15.9987 4.67682 15.9987 4.47721C15.9987 4.27761 15.9194 4.08618 15.7783 3.94504C15.6372 3.8039 15.4458 3.72461 15.2462 3.72461C15.0466 3.72461 14.8552 3.8039 14.7141 3.94504L10 8.66712L5.28592 3.94504C5.14479 3.8039 4.95338 3.72461 4.7538 3.72461C4.55422 3.72461 4.36281 3.8039 4.22169 3.94504C4.08056 4.08618 4.00128 4.27761 4.00128 4.47721C4.00128 4.67682 4.08056 4.86824 4.22169 5.00938L8.94327 9.72397L4.22169 14.4386C4.15144 14.5082 4.09569 14.5911 4.05764 14.6825C4.01959 14.7738 4 14.8718 4 14.9707C4 15.0697 4.01959 15.1676 4.05764 15.259C4.09569 15.3503 4.15144 15.4332 4.22169 15.5029C4.29136 15.5731 4.37425 15.6289 4.46558 15.667C4.55691 15.705 4.65487 15.7246 4.7538 15.7246C4.85274 15.7246 4.9507 15.705 5.04203 15.667C5.13335 15.6289 5.21625 15.5731 5.28592 15.5029L10 10.7808L14.7141 15.5029C14.7838 15.5731 14.8666 15.6289 14.958 15.667C15.0493 15.705 15.1473 15.7246 15.2462 15.7246C15.3451 15.7246 15.4431 15.705 15.5344 15.667C15.6257 15.6289 15.7086 15.5731 15.7783 15.5029C15.8486 15.4332 15.9043 15.3503 15.9424 15.259C15.9804 15.1676 16 15.0697 16 14.9707C16 14.8718 15.9804 14.7738 15.9424 14.6825C15.9043 14.5911 15.8486 14.5082 15.7783 14.4386L11.0567 9.72397Z" fill="currentColor"/>
</g>
</svg>
