<svg width="17" height="19" viewBox="0 0 17 19" fill="none" xmlns="http://www.w3.org/2000/svg">
<path id="Vector" d="M9.99704 9.07164L16.6859 1.94271C16.8859 1.72929 16.9982 1.43983 16.9982 1.13801C16.9982 0.836193 16.8859 0.546735 16.6859 0.333316C16.486 0.119897 16.2149 0 15.9321 0C15.6494 0 15.3782 0.119897 15.1783 0.333316L8.5 7.47358L1.82172 0.333316C1.62179 0.119897 1.35063 2.67969e-07 1.06789 2.70218e-07C0.785146 2.72466e-07 0.513986 0.119897 0.314058 0.333316C0.11413 0.546735 0.0018122 0.836193 0.0018122 1.13801C0.0018122 1.43983 0.11413 1.72929 0.314058 1.94271L7.00296 9.07164L0.314058 16.2006C0.214544 16.3059 0.135557 16.4313 0.0816547 16.5694C0.027752 16.7075 0 16.8556 0 17.0053C0 17.1549 0.027752 17.303 0.0816547 17.4411C0.135557 17.5792 0.214544 17.7046 0.314058 17.81C0.41276 17.9162 0.530188 18.0005 0.65957 18.058C0.788952 18.1156 0.927726 18.1452 1.06789 18.1452C1.20805 18.1452 1.34682 18.1156 1.4762 18.058C1.60559 18.0005 1.72301 17.9162 1.82172 17.81L8.5 10.6697L15.1783 17.81C15.277 17.9162 15.3944 18.0005 15.5238 18.058C15.6532 18.1156 15.792 18.1452 15.9321 18.1452C16.0723 18.1452 16.211 18.1156 16.3404 18.058C16.4698 18.0005 16.5872 17.9162 16.6859 17.81C16.7855 17.7046 16.8644 17.5792 16.9183 17.4411C16.9722 17.303 17 17.1549 17 17.0053C17 16.8556 16.9722 16.7075 16.9183 16.5694C16.8644 16.4313 16.7855 16.3059 16.6859 16.2006L9.99704 9.07164Z" fill="#0B0B0B"/>
</svg>
