<svg width="22" height="25" viewBox="0 0 22 25" fill="none" xmlns="http://www.w3.org/2000/svg">
<path d="M21.6386 18.3875L18.6818 15.3625C18.5682 15.2453 18.433 15.1523 18.2841 15.0889C18.1353 15.0254 17.9756 14.9927 17.8143 14.9927C17.653 14.9927 17.4933 15.0254 17.3444 15.0889C17.1955 15.1523 17.0603 15.2453 16.9468 15.3625L12.5726 19.8375C12.4594 19.9543 12.3698 20.0928 12.309 20.2451C12.2482 20.3974 12.2174 20.5605 12.2183 20.725V23.75C12.2183 24.0815 12.347 24.3994 12.5762 24.6339C12.8053 24.8683 13.1161 25 13.4401 25H16.3969C16.5577 25.0009 16.7171 24.9694 16.866 24.9072C17.0149 24.845 17.1503 24.7533 17.2644 24.6375L21.6386 20.1625C21.7531 20.0463 21.844 19.908 21.906 19.7557C21.9681 19.6034 22 19.44 22 19.275C22 19.11 21.9681 18.9466 21.906 18.7943C21.844 18.6419 21.7531 18.5037 21.6386 18.3875ZM15.8838 22.5H14.6619V21.25L17.8143 18.025L19.0361 19.275L15.8838 22.5ZM8.5528 22.5H3.66549C3.34144 22.5 3.03066 22.3683 2.80152 22.1339C2.57239 21.8994 2.44366 21.5815 2.44366 21.25V3.75C2.44366 3.41848 2.57239 3.10053 2.80152 2.86611C3.03066 2.63169 3.34144 2.5 3.66549 2.5H9.77463V6.25C9.77463 7.24456 10.1608 8.19838 10.8482 8.90164C11.5356 9.60491 12.468 9.99999 13.4401 9.99999H17.1056V11.25C17.1056 11.5815 17.2343 11.8995 17.4635 12.1339C17.6926 12.3683 18.0034 12.5 18.3274 12.5C18.6515 12.5 18.9623 12.3683 19.1914 12.1339C19.4205 11.8995 19.5493 11.5815 19.5493 11.25V8.74999C19.5493 8.74999 19.5493 8.74999 19.5493 8.67499C19.5365 8.56016 19.512 8.44703 19.476 8.33749V8.22499C19.4172 8.09647 19.3388 7.97832 19.2438 7.87499L11.9128 0.375C11.8118 0.27777 11.6963 0.197601 11.5707 0.1375C11.5342 0.1322 11.4972 0.1322 11.4608 0.1375L11.0698 0H3.66549C2.69334 0 1.76101 0.395088 1.0736 1.09835C0.386184 1.80161 0 2.75544 0 3.75V21.25C0 22.2445 0.386184 23.1984 1.0736 23.9016C1.76101 24.6049 2.69334 25 3.66549 25H8.5528C8.87685 25 9.18763 24.8683 9.41676 24.6339C9.6459 24.3994 9.77463 24.0815 9.77463 23.75C9.77463 23.4185 9.6459 23.1005 9.41676 22.8661C9.18763 22.6317 8.87685 22.5 8.5528 22.5ZM12.2183 4.2625L15.3828 7.49999H13.4401C13.1161 7.49999 12.8053 7.3683 12.5762 7.13388C12.347 6.89946 12.2183 6.58152 12.2183 6.25V4.2625ZM6.10914 15H13.4401C13.7642 15 14.0749 14.8683 14.3041 14.6339C14.5332 14.3995 14.6619 14.0815 14.6619 13.75C14.6619 13.4185 14.5332 13.1005 14.3041 12.8661C14.0749 12.6317 13.7642 12.5 13.4401 12.5H6.10914C5.78509 12.5 5.47432 12.6317 5.24518 12.8661C5.01604 13.1005 4.88731 13.4185 4.88731 13.75C4.88731 14.0815 5.01604 14.3995 5.24518 14.6339C5.47432 14.8683 5.78509 15 6.10914 15ZM6.10914 9.99999H7.33097C7.65502 9.99999 7.9658 9.8683 8.19493 9.63388C8.42407 9.39946 8.5528 9.08151 8.5528 8.74999C8.5528 8.41847 8.42407 8.10053 8.19493 7.86611C7.9658 7.63169 7.65502 7.49999 7.33097 7.49999H6.10914C5.78509 7.49999 5.47432 7.63169 5.24518 7.86611C5.01604 8.10053 4.88731 8.41847 4.88731 8.74999C4.88731 9.08151 5.01604 9.39946 5.24518 9.63388C5.47432 9.8683 5.78509 9.99999 6.10914 9.99999ZM8.5528 17.5H6.10914C5.78509 17.5 5.47432 17.6317 5.24518 17.8661C5.01604 18.1005 4.88731 18.4185 4.88731 18.75C4.88731 19.0815 5.01604 19.3994 5.24518 19.6339C5.47432 19.8683 5.78509 20 6.10914 20H8.5528C8.87685 20 9.18763 19.8683 9.41676 19.6339C9.6459 19.3994 9.77463 19.0815 9.77463 18.75C9.77463 18.4185 9.6459 18.1005 9.41676 17.8661C9.18763 17.6317 8.87685 17.5 8.5528 17.5Z" fill="#0B0B0B"/>
</svg>
