<svg width="24" height="25" viewBox="0 0 24 25" fill="none" xmlns="http://www.w3.org/2000/svg">
<path d="M22.3338 21.1297C23.0854 20.1221 23.6012 18.9587 23.8431 17.7251C24.085 16.4916 24.0468 15.2194 23.7314 14.0026C23.416 12.7858 22.8314 11.6553 22.0207 10.6946C21.21 9.73396 20.194 8.96759 19.0476 8.45207C18.7979 7.01532 18.224 5.65439 17.3695 4.47268C16.515 3.29098 15.4025 2.31959 14.1163 1.63234C12.8302 0.94509 11.4044 0.560049 9.94712 0.506477C8.48989 0.452905 7.03962 0.732212 5.7065 1.32317C4.37338 1.91414 3.1925 2.80121 2.25358 3.91698C1.31465 5.03275 0.642389 6.34787 0.287871 7.76242C-0.0666478 9.17696 -0.0940951 10.6537 0.207615 12.0804C0.509324 13.5072 1.13225 14.8464 2.02907 15.9963L0.361996 17.6514C0.19558 17.8201 0.0828473 18.0343 0.0380233 18.267C-0.00680069 18.4996 0.0182925 18.7404 0.110137 18.9588C0.200111 19.1778 0.352903 19.3653 0.549258 19.4977C0.745613 19.63 0.976743 19.7012 1.21352 19.7024H8.03772C8.71732 21.1352 9.78879 22.3462 11.1281 23.1953C12.4674 24.0443 14.0198 24.4967 15.6055 24.5H22.8015C23.0383 24.4988 23.2694 24.4276 23.4658 24.2952C23.6621 24.1629 23.8149 23.9754 23.9049 23.7564C23.9967 23.5379 24.0218 23.2972 23.977 23.0645C23.9322 22.8319 23.8194 22.6177 23.653 22.449L22.3338 21.1297ZM7.21018 16.1042C7.21183 16.5059 7.2439 16.9068 7.30613 17.3036H4.10391L4.52368 16.8958C4.63609 16.7843 4.72531 16.6517 4.7862 16.5055C4.84709 16.3594 4.87844 16.2026 4.87844 16.0443C4.87844 15.8859 4.84709 15.7292 4.7862 15.583C4.72531 15.4368 4.63609 15.3042 4.52368 15.1927C3.85152 14.5279 3.31865 13.7357 2.95621 12.8625C2.59378 11.9893 2.40906 11.0527 2.41285 10.1072C2.41285 8.19864 3.171 6.36822 4.52051 5.01863C5.87002 3.66905 7.70035 2.91086 9.60884 2.91086C11.098 2.90191 12.5526 3.3599 13.768 4.22044C14.9835 5.08098 15.8987 6.30081 16.3851 7.70845C16.1212 7.70845 15.8694 7.70845 15.6055 7.70845C13.3789 7.70845 11.2435 8.593 9.66912 10.1675C8.09469 11.742 7.21018 13.8775 7.21018 16.1042ZM19.8511 22.1012L19.9111 22.1612H15.6055C14.2183 22.1587 12.8748 21.6753 11.804 20.7934C10.7332 19.9114 10.0012 18.6855 9.73285 17.3244C9.46447 15.9633 9.67625 14.5513 10.3321 13.3288C10.988 12.1064 12.0474 11.1492 13.3298 10.6202C14.6123 10.0913 16.0384 10.0233 17.3653 10.428C18.6922 10.8326 19.8378 11.6848 20.6069 12.8394C21.376 13.994 21.721 15.3795 21.5832 16.7599C21.4454 18.1404 20.8333 19.4303 19.8511 20.4101C19.6252 20.6315 19.4958 20.9333 19.4913 21.2496C19.492 21.4083 19.5241 21.5653 19.5859 21.7115C19.6477 21.8577 19.7378 21.9901 19.8511 22.1012Z" fill="#D6D6D6"/>
</svg>
