<svg width="30" height="29" viewBox="0 0 30 29" fill="none" xmlns="http://www.w3.org/2000/svg">
<path d="M24.2542 11.7222L15.7959 4.32119C15.3403 3.92256 14.66 3.92256 14.2045 4.32119L5.74614 11.7222C5.48391 11.9517 5.3335 12.2832 5.3335 12.6316V22.9583C5.3335 23.6256 5.87449 24.1666 6.54183 24.1666H11.3752C12.0425 24.1666 12.5835 23.6256 12.5835 22.9583V18.125C12.5835 17.4576 13.1245 16.9166 13.7918 16.9166H16.2085C16.8758 16.9166 17.4168 17.4576 17.4168 18.125V22.9583C17.4168 23.6256 17.9578 24.1666 18.6252 24.1666H23.4585C24.1258 24.1666 24.6668 23.6256 24.6668 22.9583V12.6316C24.6668 12.2832 24.5164 11.9517 24.2542 11.7222Z" stroke="#0B0B0B" stroke-width="2.5" stroke-linecap="round" stroke-linejoin="round"/>
</svg>
