<svg width="26" height="27" viewBox="0 0 26 27" fill="none" xmlns="http://www.w3.org/2000/svg">
<path d="M23.5304 10.6738L13.9054 1.85619C13.387 1.38127 12.613 1.38127 12.0946 1.85619L2.46956 10.6738C2.17116 10.9471 2 11.3421 2 11.7572V24.0604C2 24.8555 2.61561 25.5 3.375 25.5H8.875C9.63439 25.5 10.25 24.8555 10.25 24.0604V18.302C10.25 17.5069 10.8656 16.8624 11.625 16.8624H14.375C15.1344 16.8624 15.75 17.5069 15.75 18.302V24.0604C15.75 24.8555 16.3656 25.5 17.125 25.5H22.625C23.3844 25.5 24 24.8555 24 24.0604V11.7572C24 11.3421 23.8288 10.9471 23.5304 10.6738Z" stroke="currentColor" stroke-width="2.5" stroke-linecap="round" stroke-linejoin="round"/>
</svg>
