<svg width="24" height="25" viewBox="0 0 24 25" fill="none" xmlns="http://www.w3.org/2000/svg">
<path d="M20.4 5.55263H16.8V4.28947C16.8 3.28444 16.4207 2.32058 15.7456 1.60991C15.0705 0.899247 14.1548 0.5 13.2 0.5H10.8C9.84522 0.5 8.92955 0.899247 8.25441 1.60991C7.57928 2.32058 7.2 3.28444 7.2 4.28947V5.55263H3.6C2.64522 5.55263 1.72955 5.95188 1.05442 6.66254C0.379285 7.37321 0 8.33707 0 9.3421V20.7105C0 21.7156 0.379285 22.6794 1.05442 23.3901C1.72955 24.1008 2.64522 24.5 3.6 24.5H20.4C21.3548 24.5 22.2705 24.1008 22.9456 23.3901C23.6207 22.6794 24 21.7156 24 20.7105V9.3421C24 8.33707 23.6207 7.37321 22.9456 6.66254C22.2705 5.95188 21.3548 5.55263 20.4 5.55263ZM9.6 4.28947C9.6 3.95446 9.72643 3.63317 9.95147 3.39629C10.1765 3.1594 10.4817 3.02632 10.8 3.02632H13.2C13.5183 3.02632 13.8235 3.1594 14.0485 3.39629C14.2736 3.63317 14.4 3.95446 14.4 4.28947V5.55263H9.6V4.28947ZM21.6 20.7105C21.6 21.0455 21.4736 21.3668 21.2485 21.6037C21.0235 21.8406 20.7183 21.9737 20.4 21.9737H3.6C3.28174 21.9737 2.97652 21.8406 2.75147 21.6037C2.52643 21.3668 2.4 21.0455 2.4 20.7105V13.7632C3.57053 14.2519 4.77382 14.6488 6 14.9505V15.6958C6 16.0308 6.12643 16.3521 6.35147 16.589C6.57652 16.8259 6.88174 16.9589 7.2 16.9589C7.51826 16.9589 7.82348 16.8259 8.04853 16.589C8.27357 16.3521 8.4 16.0308 8.4 15.6958V15.4305C9.59322 15.6015 10.7958 15.6901 12 15.6958C13.2042 15.6901 14.4068 15.6015 15.6 15.4305V15.6958C15.6 16.0308 15.7264 16.3521 15.9515 16.589C16.1765 16.8259 16.4817 16.9589 16.8 16.9589C17.1183 16.9589 17.4235 16.8259 17.6485 16.589C17.8736 16.3521 18 16.0308 18 15.6958V14.9505C19.2262 14.6488 20.4295 14.2519 21.6 13.7632V20.7105ZM21.6 10.9968C20.4329 11.5154 19.2293 11.9377 18 12.26V11.8684C18 11.5334 17.8736 11.2121 17.6485 10.9752C17.4235 10.7383 17.1183 10.6053 16.8 10.6053C16.4817 10.6053 16.1765 10.7383 15.9515 10.9752C15.7264 11.2121 15.6 11.5334 15.6 11.8684V12.8032C13.2135 13.1822 10.7865 13.1822 8.4 12.8032V11.8684C8.4 11.5334 8.27357 11.2121 8.04853 10.9752C7.82348 10.7383 7.51826 10.6053 7.2 10.6053C6.88174 10.6053 6.57652 10.7383 6.35147 10.9752C6.12643 11.2121 6 11.5334 6 11.8684V12.2853C4.77074 11.9629 3.56713 11.5406 2.4 11.0221V9.3421C2.4 9.00709 2.52643 8.68581 2.75147 8.44892C2.97652 8.21203 3.28174 8.07895 3.6 8.07895H20.4C20.7183 8.07895 21.0235 8.21203 21.2485 8.44892C21.4736 8.68581 21.6 9.00709 21.6 9.3421V10.9968Z" fill="#0B0B0B"/>
</svg>
