<svg width="24" height="25" viewBox="0 0 24 25" fill="none" xmlns="http://www.w3.org/2000/svg">
<path d="M15.372 12.836C16.1316 12.0203 16.5595 10.9505 16.572 9.836C16.572 8.63298 16.0941 7.47923 15.2434 6.62856C14.3928 5.7779 13.239 5.3 12.036 5.3C10.833 5.3 9.67923 5.7779 8.82856 6.62856C7.9779 7.47923 7.5 8.63298 7.5 9.836C7.51252 10.9505 7.94043 12.0203 8.7 12.836C7.64239 13.3626 6.73226 14.1439 6.0515 15.1096C5.37073 16.0752 4.94067 17.1949 4.8 18.368C4.76499 18.6863 4.85784 19.0054 5.05813 19.2552C5.25842 19.505 5.54974 19.665 5.868 19.7C6.18626 19.735 6.50539 19.6422 6.75519 19.4419C7.00499 19.2416 7.16499 18.9503 7.2 18.632C7.3432 17.4694 7.90662 16.3992 8.7841 15.6232C9.66159 14.8471 10.7926 14.4188 11.964 14.4188C13.1354 14.4188 14.2664 14.8471 15.1439 15.6232C16.0214 16.3992 16.5848 17.4694 16.728 18.632C16.7614 18.9397 16.9123 19.2226 17.1494 19.4216C17.3864 19.6206 17.6912 19.7204 18 19.7H18.132C18.4466 19.6638 18.7341 19.5048 18.9319 19.2575C19.1297 19.0102 19.2217 18.6948 19.188 18.38C19.0578 17.2131 18.6413 16.0964 17.9755 15.1293C17.3098 14.1621 16.4155 13.3743 15.372 12.836ZM12 11.972C11.5775 11.972 11.1646 11.8467 10.8133 11.612C10.462 11.3773 10.1883 11.0437 10.0266 10.6534C9.86493 10.2631 9.82262 9.83363 9.90504 9.41929C9.98746 9.00494 10.1909 8.62434 10.4896 8.32562C10.7883 8.0269 11.1689 7.82346 11.5833 7.74104C11.9976 7.65863 12.4271 7.70092 12.8174 7.86259C13.2077 8.02426 13.5413 8.29804 13.776 8.6493C14.0107 9.00057 14.136 9.41354 14.136 9.836C14.136 10.4025 13.911 10.9458 13.5104 11.3464C13.1098 11.747 12.5665 11.972 12 11.972ZM20.4 0.5H3.6C2.64522 0.5 1.72955 0.879285 1.05442 1.55442C0.379285 2.22955 0 3.14522 0 4.1V20.9C0 21.8548 0.379285 22.7705 1.05442 23.4456C1.72955 24.1207 2.64522 24.5 3.6 24.5H20.4C21.3548 24.5 22.2705 24.1207 22.9456 23.4456C23.6207 22.7705 24 21.8548 24 20.9V4.1C24 3.14522 23.6207 2.22955 22.9456 1.55442C22.2705 0.879285 21.3548 0.5 20.4 0.5ZM21.6 20.9C21.6 21.2183 21.4736 21.5235 21.2485 21.7485C21.0235 21.9736 20.7183 22.1 20.4 22.1H3.6C3.28174 22.1 2.97652 21.9736 2.75147 21.7485C2.52643 21.5235 2.4 21.2183 2.4 20.9V4.1C2.4 3.78174 2.52643 3.47652 2.75147 3.25147C2.97652 3.02643 3.28174 2.9 3.6 2.9H20.4C20.7183 2.9 21.0235 3.02643 21.2485 3.25147C21.4736 3.47652 21.6 3.78174 21.6 4.1V20.9Z" fill="#0B0B0B"/>
</svg>
